<?xml version="1.0" standalone="no"?>
<!DOCTYPE svg PUBLIC "-//W3C//DTD SVG 1.1//EN" "http://www.w3.org/Graphics/SVG/1.1/DTD/svg11.dtd" >
<svg xmlns="http://www.w3.org/2000/svg">
<defs>
  <font id="lk-icons" horiz-adv-x="1000">
    <font-face font-family="lk-icons"
      units-per-em="1000" ascent="1000"
      descent="0" />
    <missing-glyph horiz-adv-x="0" />
    <glyph glyph-name="alarm-fill"
      unicode="&#xEA01;"
      horiz-adv-x="1000" d="M375 968.75A31.25 31.25 0 0 0 406.25 1000H593.75A31.25 31.25 0 0 0 593.75 937.5H562.5V870.625A437.5625000000001 437.5625000000001 0 0 0 767.125 91L804.6875 53.375A31.25 31.25 0 0 0 760.5 9.1249999999999L713.8749999999999 55.75A435.625 435.625 0 0 0 500 0A435.625 435.625 0 0 0 286.125 55.75L239.5 9.1249999999999A31.25 31.25 0 0 0 195.3125 53.375L232.9375 91A437.5625000000001 437.5625000000001 0 0 0 437.5 870.625V937.5H406.25A31.25 31.25 0 0 0 375 968.75M531.25 656.25A31.25 31.25 0 0 1 468.75 656.25V446.125L379.4375 297.375A31.25 31.25 0 1 1 433.0625 265.1874999999999L526.8124999999999 421.4374999999999A31.25 31.25 0 0 1 531.25 437.5zM53.75 663.3125A156.25 156.25 0 1 0 274.1875 883.75A502.5 502.5 0 0 1 53.75 663.3125M725.8125 883.75A156.25 156.25 0 1 0 946.25 663.3125A502.5 502.5 0 0 1 725.8125 883.75" />
    <glyph glyph-name="alarm"
      unicode="&#xEA02;"
      horiz-adv-x="1000" d="M531.25 656.25A31.25 31.25 0 0 1 468.75 656.25V446.125L379.4375 297.375A31.25 31.25 0 1 1 433.0625 265.1874999999999L526.8124999999999 421.4374999999999A31.25 31.25 0 0 1 531.25 437.5zM406.25 1000A31.25 31.25 0 0 1 406.25 937.5H437.5V870.625A437.5625000000001 437.5625000000001 0 0 1 232.9375 91L195.3125 53.375A31.25 31.25 0 0 1 239.5 9.1249999999999L286.125 55.75A435.625 435.625 0 0 1 500 0A435.625 435.625 0 0 1 713.875 55.75L760.5000000000001 9.1249999999999A31.25 31.25 0 0 1 804.6875000000001 53.375L767.125 91A437.5625000000001 437.5625000000001 0 0 1 562.5 870.625V937.5H593.75A31.25 31.25 0 0 1 593.75 1000zM471.125 811.375A375 375 0 0 0 528.875 811.375A375 375 0 1 0 471.1249999999999 811.375M0 781.25C0 734.1875 20.8125 691.9375 53.75 663.3125A502.5 502.5 0 0 0 274.1875 883.75A156.25 156.25 0 0 1 0 781.25M843.75 937.5C796.6875 937.5 754.4375 916.6875 725.8125 883.75A502.5 502.5 0 0 0 946.25 663.3125A156.25 156.25 0 0 1 843.75 937.5" />
    <glyph glyph-name="app-indicator"
      unicode="&#xEA03;"
      horiz-adv-x="1000" d="M343.75 875A218.75 218.75 0 0 1 125 656.25V343.75A218.75 218.75 0 0 1 343.75 125H656.25A218.75 218.75 0 0 1 875 343.75V500A31.25 31.25 0 0 0 937.5 500V343.75A281.25 281.25 0 0 0 656.25 62.5H343.75A281.25 281.25 0 0 0 62.5 343.75V656.25A281.25 281.25 0 0 0 343.75 937.5H500A31.25 31.25 0 0 0 500 875zM1000 812.5A187.5 187.5 0 1 0 625 812.5A187.5 187.5 0 0 0 1000 812.5" />
    <glyph glyph-name="app"
      unicode="&#xEA04;"
      horiz-adv-x="1000" d="M687.5 875A187.5 187.5 0 0 0 875 687.5V312.5A187.5 187.5 0 0 0 687.5 125H312.5A187.5 187.5 0 0 0 125 312.5V687.5A187.5 187.5 0 0 0 312.5 875zM312.5 937.5A250 250 0 0 1 62.5 687.5V312.5A250 250 0 0 1 312.5 62.5H687.5A250 250 0 0 1 937.5 312.5V687.5A250 250 0 0 1 687.5 937.5z" />
    <glyph glyph-name="apple-music"
      unicode="&#xEA05;"
      horiz-adv-x="1000" d="M687.1875 1000L723 999.9375Q738.0625 999.9375 753.1875 999.5C775.0625 998.875 797.25 997.625 818.875 993.6875C840.875 989.75 861.375 983.3125 881.3125 973.125A210 210 0 0 0 973.1875000000002 881.375C983.3125000000002 861.375 989.7500000000002 840.875 993.6875 818.875C997.6250000000002 797.1875 998.9375 775.125 999.5 753.1875Q999.9375 738.125 999.9375 723L1000 687.1875V312.8125L999.9375 277Q999.9375 261.9375 999.4375000000002 246.8125C998.8125000000002 224.9375 997.5625000000002 202.8125 993.6875 181.1875A218.75 218.75 0 0 0 973.0625 118.6875A210 210 0 0 0 881.3125 26.9375A218.75 218.75 0 0 0 818.8125 6.3125A437.5 437.5 0 0 0 753.1875 0.5624999999999Q738.125 0.1249999999999 723 0.0625L687.1875 0H312.8125L276.9999999999999 0.0625Q261.9375 0.0625 246.8124999999999 0.5624999999999A437.5 437.5 0 0 0 181.0624999999999 6.3125A225 225 0 0 0 118.6874999999999 26.9375A210 210 0 0 0 26.8124999999999 118.6875A225 225 0 0 0 6.3124999999999 181.1875A437.5 437.5 0 0 0 0.4999999999999 246.8125Q0.125 261.875 0 277V687.1875L0.0625 723Q0.0625 738.0625 0.5 753.1875C1.125 775.0625 2.375 797.1875 6.3125 818.8125A225 225 0 0 0 26.875 881.3125A210 210 0 0 0 118.75 973.0625A218.75 218.75 0 0 0 181 993.75A437.5 437.5 0 0 0 246.875 999.5Q261.875 999.875 277 1000H312.8125000000001zM680.5 842.625L383.25 782.6875H383.125A41.25 41.25 0 0 1 364.625 774.375A31.25 31.25 0 0 1 354.625 755C354.375 753.3125 354 750 354 745V373C354 364.25 353.25 355.8125 347.375 348.625C341.4375 341.4375 334.25 339.2499999999999 325.6875 337.5625L306.3125000000001 333.625C281.7500000000001 328.625 265.6875 325.3124999999999 251.2500000000001 319.6874999999999A87.5 87.5 0 0 1 218.8125 298.8749999999999A78.125 78.125 0 0 1 198.0625 236.6874999999999C200 218.1249999999999 208.4375 200.3124999999999 222.75 187.1875C232.5000000000001 178.3125 244.6250000000001 171.5625 258.875 168.6875C273.625 165.75 289.5000000000001 166.75 312.5 171.375C324.75 173.8749999999999 336.25 177.75 347.1875 184.1875A87.5 87.5 0 0 1 374.5625 209.4999999999999A93.75 93.75 0 0 1 389.125 243.875C391.75 256.5 392.375 267.9999999999999 392.375 280.6249999999999V603.3125C392.375 620.5625 397.375 625.1875 411.2499999999999 628.5625C412.7499999999999 628.875 658.3749999999999 678.375 669.8749999999999 680.625C685.9374999999999 683.6875 693.4999999999999 679.0625 693.4999999999999 662.25V442C693.4999999999999 433.2499999999999 693.4374999999999 424.5 687.4999999999999 417.2499999999999C681.6249999999999 410.0624999999999 674.3124999999999 407.8749999999999 665.7499999999999 406.1249999999999L646.3749999999998 402.2499999999999C621.8124999999998 397.2499999999999 605.8124999999999 393.9374999999998 591.3749999999998 388.3124999999999A87.5 87.5 0 0 1 558.8749999999998 367.4374999999999A78.75 78.75 0 0 1 537.6249999999998 305.3124999999999C539.4999999999998 286.7499999999999 548.4999999999998 268.9374999999998 562.8749999999998 255.8124999999999A75 75 0 0 1 598.9374999999998 237.4374999999999C613.7499999999998 234.4374999999999 629.5624999999998 235.5624999999999 652.5624999999998 240.1874999999999C664.8749999999998 242.6874999999999 676.3749999999999 246.3124999999999 687.3124999999998 252.8124999999999A87.5 87.5 0 0 1 714.6874999999998 278.1249999999999Q725.4999999999998 293.8749999999999 729.2499999999999 312.4374999999998A168.75 168.75 0 0 1 731.9999999999999 349.2499999999999V820.9375C731.9999999999999 838 723.0624999999999 848.625 706.9999999999999 847.1875C704.4999999999999 847 683.0624999999999 843.1875 680.4999999999999 842.625" />
    <glyph glyph-name="arrow-90deg-down"
      unicode="&#xEA06;"
      horiz-adv-x="1000" d="M303.375 71.625A31.25 31.25 0 0 0 259.125 71.625L9.125 321.625A31.25 31.25 0 0 0 53.375 365.8750000000001L250 169.1875V781.25A156.25 156.25 0 0 0 406.25 937.5H906.25A31.25 31.25 0 0 0 906.25 875H406.25A93.75 93.75 0 0 1 312.5 781.25V169.1875L509.1250000000001 365.8750000000001A31.25 31.25 0 0 0 553.3750000000001 321.625z" />
    <glyph glyph-name="arrow-90deg-left"
      unicode="&#xEA07;"
      horiz-adv-x="1000" d="M71.625 696.625A31.25 31.25 0 0 0 71.625 740.875L321.625 990.875A31.25 31.25 0 1 0 365.875 946.625L169.1875 750H781.25A156.25 156.25 0 0 0 937.5 593.75V93.75A31.25 31.25 0 0 0 875 93.75V593.75A93.75 93.75 0 0 1 781.25 687.5H169.1875L365.875 490.8749999999999A31.25 31.25 0 1 0 321.625 446.6249999999999z" />
    <glyph glyph-name="arrow-90deg-right"
      unicode="&#xEA08;"
      horiz-adv-x="1000" d="M928.375 696.625A31.25 31.25 0 0 1 928.375 740.875L678.375 990.875A31.25 31.25 0 0 1 634.1249999999999 946.625L830.8125 750H218.75A156.25 156.25 0 0 1 62.5 593.75V93.75A31.25 31.25 0 0 1 125 93.75V593.75A93.75 93.75 0 0 0 218.75 687.5H830.8125L634.1249999999999 490.8749999999999A31.25 31.25 0 0 1 678.375 446.6249999999999z" />
    <glyph glyph-name="arrow-90deg-up"
      unicode="&#xEA09;"
      horiz-adv-x="1000" d="M303.375 928.375A31.25 31.25 0 0 1 259.125 928.375L9.125 678.375A31.25 31.25 0 1 1 53.375 634.125L250 830.8125V218.75A156.25 156.25 0 0 1 406.25 62.5H906.25A31.25 31.25 0 0 1 906.25 125H406.25A93.75 93.75 0 0 0 312.5 218.75V830.8125L509.1250000000001 634.125A31.25 31.25 0 1 1 553.3750000000001 678.375z" />
    <glyph glyph-name="arrow-bar-down"
      unicode="&#xEA0A;"
      horiz-adv-x="1000" d="M62.5 781.25A31.25 31.25 0 0 0 93.75 812.5H906.25A31.25 31.25 0 0 0 906.25 750H93.75A31.25 31.25 0 0 0 62.5 781.25M500 625A31.25 31.25 0 0 0 531.25 593.75V231.6875L665.375 365.8750000000001A31.25 31.25 0 0 0 709.6250000000001 321.625L522.1250000000001 134.125A31.25 31.25 0 0 0 477.8750000000001 134.125L290.3750000000001 321.625A31.25 31.25 0 0 0 334.6250000000001 365.8750000000001L468.75 231.6875V593.75A31.25 31.25 0 0 0 500 625" />
    <glyph glyph-name="arrow-bar-left"
      unicode="&#xEA0B;"
      horiz-adv-x="1000" d="M781.25 62.5A31.25 31.25 0 0 0 750 93.75V906.25A31.25 31.25 0 0 0 812.5 906.25V93.75A31.25 31.25 0 0 0 781.25 62.5M625 500A31.25 31.25 0 0 0 593.75 468.75H231.6875L365.875 334.625A31.25 31.25 0 0 0 321.625 290.3749999999999L134.125 477.8749999999999A31.25 31.25 0 0 0 134.125 522.125L321.625 709.625A31.25 31.25 0 1 0 365.875 665.375L231.6875 531.25H593.75A31.25 31.25 0 0 0 625 500" />
    <glyph glyph-name="arrow-bar-right"
      unicode="&#xEA0C;"
      horiz-adv-x="1000" d="M375 500A31.25 31.25 0 0 1 406.25 468.75H768.3125L634.1249999999999 334.625A31.25 31.25 0 0 1 678.375 290.3749999999999L865.875 477.8749999999999A31.25 31.25 0 0 1 865.875 522.125L678.375 709.625A31.25 31.25 0 0 1 634.1249999999999 665.375L768.3125 531.25H406.25A31.25 31.25 0 0 1 375 500M218.75 62.5A31.25 31.25 0 0 0 187.5 93.75V906.25A31.25 31.25 0 0 0 250 906.25V93.75A31.25 31.25 0 0 0 218.75 62.5" />
    <glyph glyph-name="arrow-bar-up"
      unicode="&#xEA0D;"
      horiz-adv-x="1000" d="M500 375A31.25 31.25 0 0 1 531.25 406.25V768.3125L665.375 634.125A31.25 31.25 0 0 1 709.6250000000001 678.375L522.1250000000001 865.875A31.25 31.25 0 0 1 477.8750000000001 865.875L290.3750000000001 678.375A31.25 31.25 0 1 1 334.6250000000001 634.125L468.75 768.3125V406.25A31.25 31.25 0 0 1 500 375M62.5 218.75A31.25 31.25 0 0 0 93.75 250H906.25A31.25 31.25 0 0 0 906.25 187.5H93.75A31.25 31.25 0 0 0 62.5 218.75" />
    <glyph glyph-name="arrow-clockwise"
      unicode="&#xEA0E;"
      horiz-adv-x="1000" d="M500 812.5A312.5 312.5 0 1 1 784.125 630.375A31.25 31.25 0 0 0 840.8749999999999 656.4375A375 375 0 1 0 500 875zM500 720.875V966.625A15.625 15.625 0 0 0 525.625 978.625L673.125 855.75C680.6249999999999 849.5 680.6249999999999 838 673.125 831.75L525.625 708.875A15.625 15.625 0 0 0 500 720.875" />
    <glyph glyph-name="arrow-counterclockwise"
      unicode="&#xEA0F;"
      horiz-adv-x="1000" d="M500 812.5A312.5 312.5 0 1 0 215.875 630.375A31.25 31.25 0 0 1 159.125 656.4375A375 375 0 1 1 500 875zM500 720.875V966.625A15.625 15.625 0 0 1 474.375 978.625L326.875 855.75A15.625 15.625 0 0 1 326.875 831.75L474.375 708.875A15.625 15.625 0 0 1 500 720.875" />
    <glyph glyph-name="arrow-down-circle-fill"
      unicode="&#xEA10;"
      horiz-adv-x="1000" d="M1000 500A500 500 0 1 0 0 500A500 500 0 0 0 1000 500M531.25 718.75A31.25 31.25 0 0 1 468.75 718.75V356.6875L334.625 490.8749999999999A31.25 31.25 0 1 1 290.375 446.6249999999999L477.875 259.1249999999999A31.25 31.25 0 0 1 522.125 259.1249999999999L709.625 446.6249999999999A31.25 31.25 0 0 1 665.3749999999999 490.8749999999999L531.25 356.6875z" />
    <glyph glyph-name="arrow-down-circle"
      unicode="&#xEA11;"
      horiz-adv-x="1000" d="M62.5 500A437.5 437.5 0 1 1 937.5 500A437.5 437.5 0 0 1 62.5 500M1000 500A500 500 0 1 0 0 500A500 500 0 0 0 1000 500M531.25 718.75A31.25 31.25 0 0 1 468.75 718.75V356.6875L334.625 490.8749999999999A31.25 31.25 0 1 1 290.375 446.6249999999999L477.875 259.1249999999999A31.25 31.25 0 0 1 522.125 259.1249999999999L709.625 446.6249999999999A31.25 31.25 0 0 1 665.3749999999999 490.8749999999999L531.25 356.6875z" />
    <glyph glyph-name="arrow-down-left-circle-fill"
      unicode="&#xEA12;"
      horiz-adv-x="1000" d="M1000 500A500 500 0 1 1 0 500A500 500 0 0 1 1000 500M631 675.1875A31.25 31.25 0 1 0 675.1875 631L419.1875 375H592.1875A31.25 31.25 0 0 0 592.1875 312.5H343.75A31.25 31.25 0 0 0 312.5 343.75V592.1875A31.25 31.25 0 0 0 375 592.1875V419.1875z" />
    <glyph glyph-name="arrow-down-left-circle"
      unicode="&#xEA13;"
      horiz-adv-x="1000" d="M62.5 500A437.5 437.5 0 1 1 937.5 500A437.5 437.5 0 0 1 62.5 500M1000 500A500 500 0 1 0 0 500A500 500 0 0 0 1000 500M631 678.375A31.25 31.25 0 1 0 675.1875 634.125L419.1875 378.125H592.1875A31.25 31.25 0 1 0 592.1875 315.625H343.75A31.25 31.25 0 0 0 312.5 346.875V595.3125A31.25 31.25 0 1 0 375 595.3125V422.3125000000001z" />
    <glyph glyph-name="arrow-down-left-square-fill"
      unicode="&#xEA14;"
      horiz-adv-x="1000" d="M125 0A125 125 0 0 0 0 125V875A125 125 0 0 0 125 1000H875A125 125 0 0 0 1000 875V125A125 125 0 0 0 875 0zM631 675.1875L375 419.1875V592.1875A31.25 31.25 0 0 1 312.5 592.1875V343.75A31.25 31.25 0 0 1 343.75 312.5H592.1875A31.25 31.25 0 0 1 592.1875 375H419.1875L675.1875 631A31.25 31.25 0 1 1 631 675.1875" />
    <glyph glyph-name="arrow-down-left-square"
      unicode="&#xEA15;"
      horiz-adv-x="1000" d="M937.5 875A62.5 62.5 0 0 1 875 937.5H125A62.5 62.5 0 0 1 62.5 875V125A62.5 62.5 0 0 1 125 62.5H875A62.5 62.5 0 0 1 937.5 125zM0 875A125 125 0 0 0 125 1000H875A125 125 0 0 0 1000 875V125A125 125 0 0 0 875 0H125A125 125 0 0 0 0 125zM631 678.375A31.25 31.25 0 1 0 675.1875 634.125L419.1875 378.125H592.1875A31.25 31.25 0 1 0 592.1875 315.625H343.75A31.25 31.25 0 0 0 312.5 346.875V595.3125A31.25 31.25 0 1 0 375 595.3125V422.3125000000001z" />
    <glyph glyph-name="arrow-down-left"
      unicode="&#xEA16;"
      horiz-adv-x="1000" d="M125 156.25A31.25 31.25 0 0 1 156.25 125H531.25A31.25 31.25 0 0 1 531.25 187.5H231.6875L865.875 821.625A31.25 31.25 0 0 1 821.6249999999999 865.875L187.5 231.6875V531.25A31.25 31.25 0 0 1 125 531.25z" />
    <glyph glyph-name="arrow-down-right-circle-fill"
      unicode="&#xEA17;"
      horiz-adv-x="1000" d="M0 500A500 500 0 1 0 1000 500A500 500 0 0 0 0 500M369 675.1875A31.25 31.25 0 1 1 324.8125 631L580.8125 375H407.8125A31.25 31.25 0 0 1 407.8125 312.5H656.25A31.25 31.25 0 0 1 687.5 343.75V592.1875A31.25 31.25 0 0 1 625 592.1875V419.1875z" />
    <glyph glyph-name="arrow-down-right-circle"
      unicode="&#xEA18;"
      horiz-adv-x="1000" d="M62.5 500A437.5 437.5 0 1 1 937.5 500A437.5 437.5 0 0 1 62.5 500M1000 500A500 500 0 1 0 0 500A500 500 0 0 0 1000 500M365.875 678.375A31.25 31.25 0 1 1 321.625 634.125L577.6875 378.125H404.6875A31.25 31.25 0 1 1 404.6875 315.625H653.125A31.25 31.25 0 0 1 684.375 346.875V595.3125A31.25 31.25 0 1 1 621.875 595.3125V422.3125000000001z" />
    <glyph glyph-name="arrow-down-right-square-fill"
      unicode="&#xEA19;"
      horiz-adv-x="1000" d="M875 0A125 125 0 0 1 1000 125V875A125 125 0 0 1 875 1000H125A125 125 0 0 1 0 875V125A125 125 0 0 1 125 0zM369 675.1875L625 419.1875V592.1875A31.25 31.25 0 0 0 687.5 592.1875V343.75A31.25 31.25 0 0 0 656.25 312.5H407.8125A31.25 31.25 0 0 0 407.8125 375H580.8125L324.8125 631A31.25 31.25 0 0 0 369 675.1875" />
    <glyph glyph-name="arrow-down-right-square"
      unicode="&#xEA1A;"
      horiz-adv-x="1000" d="M937.5 875A62.5 62.5 0 0 1 875 937.5H125A62.5 62.5 0 0 1 62.5 875V125A62.5 62.5 0 0 1 125 62.5H875A62.5 62.5 0 0 1 937.5 125zM0 875A125 125 0 0 0 125 1000H875A125 125 0 0 0 1000 875V125A125 125 0 0 0 875 0H125A125 125 0 0 0 0 125zM365.875 678.375A31.25 31.25 0 1 1 321.625 634.125L577.6875 378.125H404.6875A31.25 31.25 0 1 1 404.6875 315.625H653.125A31.25 31.25 0 0 1 684.375 346.875V595.3125A31.25 31.25 0 1 1 621.875 595.3125V422.3125000000001z" />
    <glyph glyph-name="arrow-down-right"
      unicode="&#xEA1B;"
      horiz-adv-x="1000" d="M875 156.25A31.25 31.25 0 0 0 843.75 125H468.75A31.25 31.25 0 0 0 468.75 187.5H768.3125L134.125 821.625A31.25 31.25 0 1 0 178.375 865.875L812.5 231.6875V531.25A31.25 31.25 0 0 0 875 531.25z" />
    <glyph glyph-name="arrow-down-short"
      unicode="&#xEA1C;"
      horiz-adv-x="1000" d="M500 750A31.25 31.25 0 0 0 531.25 718.75V356.6875L665.375 490.8750000000001A31.25 31.25 0 0 0 709.6250000000001 446.625L522.1250000000001 259.125A31.25 31.25 0 0 0 477.8750000000001 259.125L290.3750000000001 446.625A31.25 31.25 0 1 0 334.6250000000001 490.8750000000001L468.75 356.6875V718.75A31.25 31.25 0 0 0 500 750" />
    <glyph glyph-name="arrow-down-square-fill"
      unicode="&#xEA1D;"
      horiz-adv-x="1000" d="M125 1000A125 125 0 0 1 0 875V125A125 125 0 0 1 125 0H875A125 125 0 0 1 1000 125V875A125 125 0 0 1 875 1000zM531.25 718.75V356.6875L665.375 490.8750000000001A31.25 31.25 0 0 0 709.6250000000001 446.625L522.1250000000001 259.125A31.25 31.25 0 0 0 477.8750000000001 259.125L290.3750000000001 446.625A31.25 31.25 0 1 0 334.6250000000001 490.8750000000001L468.75 356.6875V718.75A31.25 31.25 0 0 0 531.25 718.75" />
    <glyph glyph-name="arrow-down-square"
      unicode="&#xEA1E;"
      horiz-adv-x="1000" d="M937.5 875A62.5 62.5 0 0 1 875 937.5H125A62.5 62.5 0 0 1 62.5 875V125A62.5 62.5 0 0 1 125 62.5H875A62.5 62.5 0 0 1 937.5 125zM0 875A125 125 0 0 0 125 1000H875A125 125 0 0 0 1000 875V125A125 125 0 0 0 875 0H125A125 125 0 0 0 0 125zM531.25 718.75A31.25 31.25 0 0 1 468.75 718.75V356.6875L334.625 490.8749999999999A31.25 31.25 0 1 1 290.375 446.6249999999999L477.875 259.1249999999999A31.25 31.25 0 0 1 522.125 259.1249999999999L709.625 446.6249999999999A31.25 31.25 0 0 1 665.3749999999999 490.8749999999999L531.25 356.6875z" />
    <glyph glyph-name="arrow-down-up"
      unicode="&#xEA1F;"
      horiz-adv-x="1000" d="M718.75 62.5A31.25 31.25 0 0 1 750 93.75V830.8125L946.625 634.125A31.25 31.25 0 0 1 990.8750000000002 678.375L740.8750000000001 928.375A31.25 31.25 0 0 1 696.625 928.375L446.6250000000001 678.375A31.25 31.25 0 1 1 490.8750000000001 634.125L687.5 830.8125V93.75A31.25 31.25 0 0 1 718.75 62.5M281.25 937.5A31.25 31.25 0 0 0 312.5 906.25V169.1875L509.1250000000001 365.8750000000001A31.25 31.25 0 0 0 553.3750000000001 321.625L303.3750000000001 71.625A31.25 31.25 0 0 0 259.1250000000001 71.625L9.1250000000001 321.625A31.25 31.25 0 0 0 53.3750000000001 365.8750000000001L250 169.1875V906.25A31.25 31.25 0 0 0 281.25 937.5" />
    <glyph glyph-name="arrow-down"
      unicode="&#xEA20;"
      horiz-adv-x="1000" d="M500 937.5A31.25 31.25 0 0 0 531.25 906.25V169.1875L727.875 365.8750000000001A31.25 31.25 0 0 0 772.1250000000001 321.625L522.1250000000001 71.625A31.25 31.25 0 0 0 477.8750000000001 71.625L227.8750000000001 321.625A31.25 31.25 0 0 0 272.1250000000001 365.8750000000001L468.75 169.1875V906.25A31.25 31.25 0 0 0 500 937.5" />
    <glyph glyph-name="arrow-left-circle-fill"
      unicode="&#xEA21;"
      horiz-adv-x="1000" d="M500 1000A500 500 0 1 1 500 0A500 500 0 0 1 500 1000M718.75 531.25A31.25 31.25 0 0 0 718.75 468.75H356.6875L490.8749999999999 334.625A31.25 31.25 0 0 0 446.625 290.3749999999999L259.125 477.8749999999999A31.25 31.25 0 0 0 259.125 522.125L446.625 709.625A31.25 31.25 0 1 0 490.8749999999999 665.375L356.6875 531.25z" />
    <glyph glyph-name="arrow-left-circle"
      unicode="&#xEA22;"
      horiz-adv-x="1000" d="M62.5 500A437.5 437.5 0 1 1 937.5 500A437.5 437.5 0 0 1 62.5 500M1000 500A500 500 0 1 0 0 500A500 500 0 0 0 1000 500M718.75 531.25A31.25 31.25 0 0 0 718.75 468.75H356.6875L490.8749999999999 334.625A31.25 31.25 0 0 0 446.625 290.3749999999999L259.125 477.8749999999999A31.25 31.25 0 0 0 259.125 522.125L446.625 709.625A31.25 31.25 0 1 0 490.8749999999999 665.375L356.6875 531.25z" />
    <glyph glyph-name="arrow-left-right"
      unicode="&#xEA23;"
      horiz-adv-x="1000" d="M62.5 281.25A31.25 31.25 0 0 1 93.75 250H830.8125L634.1249999999999 53.375A31.25 31.25 0 0 1 678.375 9.1249999999999L928.375 259.1249999999999A31.25 31.25 0 0 1 928.375 303.375L678.375 553.375A31.25 31.25 0 0 1 634.1249999999999 509.1249999999999L830.8125 312.5H93.75A31.25 31.25 0 0 1 62.5 281.25M937.5 718.75A31.25 31.25 0 0 0 906.25 687.5H169.1875L365.875 490.8749999999999A31.25 31.25 0 1 0 321.625 446.6249999999999L71.6249999999999 696.625A31.25 31.25 0 0 0 71.6249999999999 740.875L321.625 990.875A31.25 31.25 0 1 0 365.875 946.625L169.1875 750H906.25A31.25 31.25 0 0 0 937.5 718.75" />
    <glyph glyph-name="arrow-left-short"
      unicode="&#xEA24;"
      horiz-adv-x="1000" d="M750 500A31.25 31.25 0 0 0 718.75 468.75H356.6875L490.8749999999999 334.625A31.25 31.25 0 0 0 446.625 290.3749999999999L259.125 477.8749999999999A31.25 31.25 0 0 0 259.125 522.125L446.625 709.625A31.25 31.25 0 1 0 490.8749999999999 665.375L356.6875 531.25H718.75A31.25 31.25 0 0 0 750 500" />
    <glyph glyph-name="arrow-left-square-fill"
      unicode="&#xEA25;"
      horiz-adv-x="1000" d="M1000 125A125 125 0 0 0 875 0H125A125 125 0 0 0 0 125V875A125 125 0 0 0 125 1000H875A125 125 0 0 0 1000 875zM718.75 531.25H356.6875L490.8749999999999 665.375A31.25 31.25 0 1 1 446.625 709.625L259.125 522.125A31.25 31.25 0 0 1 259.125 477.875L446.625 290.375A31.25 31.25 0 0 1 490.8749999999999 334.6250000000001L356.6875 468.75H718.75A31.25 31.25 0 0 1 718.75 531.25" />
    <glyph glyph-name="arrow-left-square"
      unicode="&#xEA26;"
      horiz-adv-x="1000" d="M937.5 875A62.5 62.5 0 0 1 875 937.5H125A62.5 62.5 0 0 1 62.5 875V125A62.5 62.5 0 0 1 125 62.5H875A62.5 62.5 0 0 1 937.5 125zM0 875A125 125 0 0 0 125 1000H875A125 125 0 0 0 1000 875V125A125 125 0 0 0 875 0H125A125 125 0 0 0 0 125zM718.75 531.25A31.25 31.25 0 0 0 718.75 468.75H356.6875L490.8749999999999 334.625A31.25 31.25 0 0 0 446.625 290.3749999999999L259.125 477.8749999999999A31.25 31.25 0 0 0 259.125 522.125L446.625 709.625A31.25 31.25 0 1 0 490.8749999999999 665.375L356.6875 531.25z" />
    <glyph glyph-name="arrow-left"
      unicode="&#xEA27;"
      horiz-adv-x="1000" d="M937.5 500A31.25 31.25 0 0 1 906.25 531.25H169.1875L365.875 727.875A31.25 31.25 0 1 1 321.625 772.125L71.6249999999999 522.125A31.25 31.25 0 0 1 71.6249999999999 477.875L321.625 227.875A31.25 31.25 0 0 1 365.875 272.1250000000001L169.1875 468.75H906.25A31.25 31.25 0 0 1 937.5 500" />
    <glyph glyph-name="arrow-repeat"
      unicode="&#xEA28;"
      horiz-adv-x="1000" d="M720.875 562.5H966.6250000000002A15.625 15.625 0 0 0 978.6250000000002 536.875L855.7500000000001 389.375A15.625 15.625 0 0 0 831.7500000000001 389.375L708.8750000000001 536.875A15.625 15.625 0 0 0 720.8750000000001 562.5M33.3750000000002 437.5H279.1250000000002A15.625 15.625 0 0 1 291.1250000000002 463.125L168.25 610.625A15.625 15.625 0 0 1 144.25 610.625L21.375 463.125A15.625 15.625 0 0 1 33.375 437.5M500 812.5C403 812.5 316.2500000000001 768.3125 258.9375 698.875A31.25 31.25 0 1 0 210.75 738.625A375.125 375.125 0 0 0 869.8125 562.5H806.25A312.5 312.5 0 0 1 500 812.5M193.75 437.5A312.625 312.625 0 0 1 741.0625 301.125A31.25 31.25 0 1 0 789.25 261.375A375.125 375.125 0 0 0 130.1875 437.5z" />
    <glyph glyph-name="arrow-return-left"
      unicode="&#xEA29;"
      horiz-adv-x="1000" d="M906.25 906.25A31.25 31.25 0 0 0 937.5 875V575A156.25 156.25 0 0 0 781.25 418.75H169.1875L378.375 209.625A31.25 31.25 0 0 0 334.125 165.3749999999999L71.625 427.875A31.25 31.25 0 0 0 71.625 472.125L321.625 722.125A31.25 31.25 0 1 0 365.875 677.875L169.1875 481.25H781.25A93.75 93.75 0 0 1 875 575V875A31.25 31.25 0 0 0 906.25 906.25" />
    <glyph glyph-name="arrow-return-right"
      unicode="&#xEA2A;"
      horiz-adv-x="1000" d="M93.75 906.25A31.25 31.25 0 0 1 62.5 875V575A156.25 156.25 0 0 1 218.75 418.75H830.8125L621.625 209.625A31.25 31.25 0 0 1 665.875 165.3749999999999L928.375 427.875A31.25 31.25 0 0 1 928.375 472.125L678.375 722.125A31.25 31.25 0 0 1 634.1249999999999 677.875L830.8125 481.25H218.75A93.75 93.75 0 0 0 125 575V875A31.25 31.25 0 0 1 93.75 906.25" />
    <glyph glyph-name="arrow-right-circle-fill"
      unicode="&#xEA2B;"
      horiz-adv-x="1000" d="M500 1000A500 500 0 1 0 500 0A500 500 0 0 0 500 1000M281.25 531.25A31.25 31.25 0 0 1 281.25 468.75H643.3125L509.1249999999999 334.625A31.25 31.25 0 0 1 553.375 290.3749999999999L740.875 477.8749999999999A31.25 31.25 0 0 1 740.875 522.125L553.375 709.625A31.25 31.25 0 1 1 509.1249999999999 665.375L643.3125 531.25z" />
    <glyph glyph-name="arrow-right-circle"
      unicode="&#xEA2C;"
      horiz-adv-x="1000" d="M62.5 500A437.5 437.5 0 1 1 937.5 500A437.5 437.5 0 0 1 62.5 500M1000 500A500 500 0 1 0 0 500A500 500 0 0 0 1000 500M281.25 531.25A31.25 31.25 0 0 1 281.25 468.75H643.3125L509.1249999999999 334.625A31.25 31.25 0 0 1 553.375 290.3749999999999L740.875 477.8749999999999A31.25 31.25 0 0 1 740.875 522.125L553.375 709.625A31.25 31.25 0 1 1 509.1249999999999 665.375L643.3125 531.25z" />
    <glyph glyph-name="arrow-right-short"
      unicode="&#xEA2D;"
      horiz-adv-x="1000" d="M250 500A31.25 31.25 0 0 0 281.25 531.25H643.3125L509.1250000000001 665.375A31.25 31.25 0 1 0 553.3750000000001 709.625L740.8750000000001 522.125A31.25 31.25 0 0 0 740.8750000000001 477.875L553.3750000000001 290.375A31.25 31.25 0 0 0 509.1250000000001 334.6250000000001L643.3125 468.75H281.25A31.25 31.25 0 0 0 250 500" />
    <glyph glyph-name="arrow-right-square-fill"
      unicode="&#xEA2E;"
      horiz-adv-x="1000" d="M0 125A125 125 0 0 1 125 0H875A125 125 0 0 1 1000 125V875A125 125 0 0 1 875 1000H125A125 125 0 0 1 0 875zM281.25 531.25H643.3125L509.1250000000001 665.375A31.25 31.25 0 1 0 553.3750000000001 709.625L740.8750000000001 522.125A31.25 31.25 0 0 0 740.8750000000001 477.875L553.3750000000001 290.375A31.25 31.25 0 0 0 509.1250000000001 334.6250000000001L643.3125 468.75H281.25A31.25 31.25 0 0 0 281.25 531.25" />
    <glyph glyph-name="arrow-right-square"
      unicode="&#xEA2F;"
      horiz-adv-x="1000" d="M937.5 875A62.5 62.5 0 0 1 875 937.5H125A62.5 62.5 0 0 1 62.5 875V125A62.5 62.5 0 0 1 125 62.5H875A62.5 62.5 0 0 1 937.5 125zM0 875A125 125 0 0 0 125 1000H875A125 125 0 0 0 1000 875V125A125 125 0 0 0 875 0H125A125 125 0 0 0 0 125zM281.25 531.25A31.25 31.25 0 0 1 281.25 468.75H643.3125L509.1249999999999 334.625A31.25 31.25 0 0 1 553.375 290.3749999999999L740.875 477.8749999999999A31.25 31.25 0 0 1 740.875 522.125L553.375 709.625A31.25 31.25 0 1 1 509.1249999999999 665.375L643.3125 531.25z" />
    <glyph glyph-name="arrow-right"
      unicode="&#xEA30;"
      horiz-adv-x="1000" d="M62.5 500A31.25 31.25 0 0 0 93.75 531.25H830.8125L634.1249999999999 727.875A31.25 31.25 0 0 0 678.375 772.125L928.375 522.125A31.25 31.25 0 0 0 928.375 477.875L678.375 227.875A31.25 31.25 0 0 0 634.1249999999999 272.1250000000001L830.8125 468.75H93.75A31.25 31.25 0 0 0 62.5 500" />
    <glyph glyph-name="arrow-through-heart-fill"
      unicode="&#xEA31;"
      horiz-adv-x="1000" d="M178.375 9.125A31.25 31.25 0 0 0 125 31.25V125H31.25A31.25 31.25 0 0 0 9.125 178.375L102.875 272.125A31.25 31.25 0 0 0 125 281.25H237.0625L431.0000000000001 475.25A31.25 31.25 0 1 0 475.2500000000001 430.9999999999999L281.25 237.0625V125A31.25 31.25 0 0 0 272.125 102.875zM1000 781.25A31.25 31.25 0 0 0 946.625 759.125L875 830.8125L812.125 767.9375C826.875 752.4375 839.625 734.75 849.625 715.125C884.7499999999999 646.625 886.1874999999999 557.8125 836.3125 459.3750000000001C786.7500000000001 361.6875 686.625 253.8750000000001 517.25 141.8750000000001L500 130.5L482.75 141.875A1500 1500 0 0 0 362.5 229.8125L519.375 386.875A93.75 93.75 0 0 1 386.7500000000001 519.5L228.5625 361.25A562.5 562.5 0 0 0 163.625 459.375C113.75 557.875 115.1875 646.6875 150.3125 715.1875C214.125 839.6875 386.25 886.9375 500 797.9375C578.125 859.1875 683.9999999999999 855.9375 763.25 807.4375L830.75 875L759.1875 946.625A31.25 31.25 0 0 0 781.25 1000H968.75A31.25 31.25 0 0 0 1000 968.75z" />
    <glyph glyph-name="arrow-through-heart"
      unicode="&#xEA32;"
      horiz-adv-x="1000" d="M178.375 9.125A31.25 31.25 0 0 0 125 31.25V125H31.25A31.25 31.25 0 0 0 9.125 178.375L102.875 272.125A31.25 31.25 0 0 0 125 281.25H237.0625L270.1875 314.375C222 364.4999999999999 187.1875 413.125 163.6875 459.375C113.8125000000001 557.8125 115.2500000000001 646.625 150.375 715.125C214.125 839.6875 386.25 886.9375 500 797.9375C578.125 859.1875 683.9999999999999 855.9375 763.25 807.4375L830.75 875L759.1875 946.625A31.25 31.25 0 0 0 781.25 1000H968.75A31.25 31.25 0 0 0 1000 968.75V781.25A31.25 31.25 0 0 0 946.625 759.125L875 830.8125L812.125 767.9375C826.875 752.4375 839.625 734.75 849.625 715.125C884.7499999999999 646.625 886.1874999999999 557.8125 836.3125 459.3750000000001C786.7500000000001 361.6875 686.625 253.8750000000001 517.25 141.8750000000001L500 130.5L482.75 141.875A1374.9999999999998 1374.9999999999998 0 0 0 314.9375 270.7499999999999L281.25 236.9999999999999V125A31.25 31.25 0 0 0 272.125 102.875zM359.1875 315.0000000000001A1275 1275 0 0 1 500 205.625C653.5 309.75 739.1875 406.0625 780.5625 487.625C823.0000000000001 571.375 818.5 638.875 794 686.6875C742.9375 786.375 601.0625 815.0625 522.375 734.25L500 711.25L477.625 734.25C398.9375000000001 815.0625 257 786.375 206 686.6875C181.5 638.8125 177 571.375 219.4375 487.625C239.625 447.875 270.3750000000001 404.5 314.375 358.5625L431.0000000000001 475.25A31.25 31.25 0 1 0 475.2500000000001 430.9999999999999z" />
    <glyph glyph-name="arrow-up-circle-fill"
      unicode="&#xEA33;"
      horiz-adv-x="1000" d="M1000 500A500 500 0 1 1 0 500A500 500 0 0 1 1000 500M531.25 281.25A31.25 31.25 0 0 0 468.75 281.25V643.3125L334.625 509.125A31.25 31.25 0 1 0 290.375 553.375L477.875 740.875A31.25 31.25 0 0 0 522.125 740.875L709.625 553.375A31.25 31.25 0 0 0 665.3749999999999 509.125L531.25 643.3125z" />
    <glyph glyph-name="arrow-up-circle"
      unicode="&#xEA34;"
      horiz-adv-x="1000" d="M62.5 500A437.5 437.5 0 1 1 937.5 500A437.5 437.5 0 0 1 62.5 500M1000 500A500 500 0 1 0 0 500A500 500 0 0 0 1000 500M531.25 281.25A31.25 31.25 0 0 0 468.75 281.25V643.3125L334.625 509.125A31.25 31.25 0 1 0 290.375 553.375L477.875 740.875A31.25 31.25 0 0 0 522.125 740.875L709.625 553.375A31.25 31.25 0 0 0 665.3749999999999 509.125L531.25 643.3125z" />
    <glyph glyph-name="arrow-up-left-circle-fill"
      unicode="&#xEA35;"
      horiz-adv-x="1000" d="M1000 500A500 500 0 1 0 0 500A500 500 0 0 0 1000 500M631 324.8125A31.25 31.25 0 1 1 675.1875 369L419.1875 625H592.1875A31.25 31.25 0 1 1 592.1875 687.5H343.75A31.25 31.25 0 0 1 312.5 656.25V407.8125A31.25 31.25 0 0 1 375 407.8125V580.8125z" />
    <glyph glyph-name="arrow-up-left-circle"
      unicode="&#xEA36;"
      horiz-adv-x="1000" d="M62.5 500A437.5 437.5 0 1 1 937.5 500A437.5 437.5 0 0 1 62.5 500M1000 500A500 500 0 1 0 0 500A500 500 0 0 0 1000 500M631 324.8125A31.25 31.25 0 1 1 675.1875 369L419.1875 625H592.1875A31.25 31.25 0 1 1 592.1875 687.5H343.75A31.25 31.25 0 0 1 312.5 656.25V407.8125A31.25 31.25 0 0 1 375 407.8125V580.8125z" />
    <glyph glyph-name="arrow-up-left-square-fill"
      unicode="&#xEA37;"
      horiz-adv-x="1000" d="M125 1000A125 125 0 0 1 0 875V125A125 125 0 0 1 125 0H875A125 125 0 0 1 1000 125V875A125 125 0 0 1 875 1000zM631 324.8125L375 580.8125V407.8125A31.25 31.25 0 0 0 312.5 407.8125V656.25A31.25 31.25 0 0 0 343.75 687.5H592.1875A31.25 31.25 0 1 0 592.1875 625H419.1875L675.1875 369A31.25 31.25 0 1 0 631 324.8125" />
    <glyph glyph-name="arrow-up-left-square"
      unicode="&#xEA38;"
      horiz-adv-x="1000" d="M937.5 875A62.5 62.5 0 0 1 875 937.5H125A62.5 62.5 0 0 1 62.5 875V125A62.5 62.5 0 0 1 125 62.5H875A62.5 62.5 0 0 1 937.5 125zM0 875A125 125 0 0 0 125 1000H875A125 125 0 0 0 1000 875V125A125 125 0 0 0 875 0H125A125 125 0 0 0 0 125zM631 324.8125A31.25 31.25 0 1 1 675.1875 369L419.1875 625H592.1875A31.25 31.25 0 1 1 592.1875 687.5H343.75A31.25 31.25 0 0 1 312.5 656.25V407.8125A31.25 31.25 0 0 1 375 407.8125V580.8125z" />
    <glyph glyph-name="arrow-up-left"
      unicode="&#xEA39;"
      horiz-adv-x="1000" d="M125 843.75A31.25 31.25 0 0 0 156.25 875H531.25A31.25 31.25 0 0 0 531.25 812.5H231.6875L865.875 178.375A31.25 31.25 0 0 0 821.6249999999999 134.1249999999999L187.5 768.3125V468.75A31.25 31.25 0 0 0 125 468.75z" />
    <glyph glyph-name="arrow-up-right-circle-fill"
      unicode="&#xEA3A;"
      horiz-adv-x="1000" d="M0 500A500 500 0 1 1 1000 500A500 500 0 0 1 0 500M369 324.8125A31.25 31.25 0 1 0 324.8125 369L580.8125 625H407.8125A31.25 31.25 0 1 0 407.8125 687.5H656.25A31.25 31.25 0 0 0 687.5 656.25V407.8125A31.25 31.25 0 0 0 625 407.8125V580.8125z" />
    <glyph glyph-name="arrow-up-right-circle"
      unicode="&#xEA3B;"
      horiz-adv-x="1000" d="M62.5 500A437.5 437.5 0 1 1 937.5 500A437.5 437.5 0 0 1 62.5 500M1000 500A500 500 0 1 0 0 500A500 500 0 0 0 1000 500M365.875 324.8125A31.25 31.25 0 1 0 321.625 369L577.6875 625H404.6875A31.25 31.25 0 1 0 404.6875 687.5H653.125A31.25 31.25 0 0 0 684.375 656.25V407.8125A31.25 31.25 0 1 0 621.875 407.8125V580.8125z" />
    <glyph glyph-name="arrow-up-right-square-fill"
      unicode="&#xEA3C;"
      horiz-adv-x="1000" d="M875 1000A125 125 0 0 0 1000 875V125A125 125 0 0 0 875 0H125A125 125 0 0 0 0 125V875A125 125 0 0 0 125 1000zM369 324.8125L625 580.8125V407.8125A31.25 31.25 0 0 1 687.5 407.8125V656.25A31.25 31.25 0 0 1 656.25 687.5H407.8125A31.25 31.25 0 1 1 407.8125 625H580.8125L324.8125 369A31.25 31.25 0 0 1 369 324.8125" />
    <glyph glyph-name="arrow-up-right-square"
      unicode="&#xEA3D;"
      horiz-adv-x="1000" d="M937.5 875A62.5 62.5 0 0 1 875 937.5H125A62.5 62.5 0 0 1 62.5 875V125A62.5 62.5 0 0 1 125 62.5H875A62.5 62.5 0 0 1 937.5 125zM0 875A125 125 0 0 0 125 1000H875A125 125 0 0 0 1000 875V125A125 125 0 0 0 875 0H125A125 125 0 0 0 0 125zM365.875 324.8125A31.25 31.25 0 1 0 321.625 369L577.6875 625H404.6875A31.25 31.25 0 1 0 404.6875 687.5H653.125A31.25 31.25 0 0 0 684.375 656.25V407.8125A31.25 31.25 0 1 0 621.875 407.8125V580.8125z" />
    <glyph glyph-name="arrow-up-right"
      unicode="&#xEA3E;"
      horiz-adv-x="1000" d="M875 843.75A31.25 31.25 0 0 1 843.75 875H468.75A31.25 31.25 0 0 1 468.75 812.5H768.3125L134.125 178.375A31.25 31.25 0 0 1 178.375 134.1249999999999L812.5 768.3125V468.75A31.25 31.25 0 0 1 875 468.75z" />
    <glyph glyph-name="arrow-up-short"
      unicode="&#xEA3F;"
      horiz-adv-x="1000" d="M500 250A31.25 31.25 0 0 1 531.25 281.25V643.3125L665.375 509.1250000000001A31.25 31.25 0 0 1 709.6250000000001 553.375L522.1250000000001 740.875A31.25 31.25 0 0 1 477.8750000000001 740.875L290.3750000000001 553.375A31.25 31.25 0 1 1 334.6250000000001 509.1250000000001L468.75 643.3125V281.25A31.25 31.25 0 0 1 500 250" />
    <glyph glyph-name="arrow-up-square-fill"
      unicode="&#xEA40;"
      horiz-adv-x="1000" d="M125 0A125 125 0 0 0 0 125V875A125 125 0 0 0 125 1000H875A125 125 0 0 0 1000 875V125A125 125 0 0 0 875 0zM531.25 281.25V643.3125L665.375 509.1250000000001A31.25 31.25 0 0 1 709.6250000000001 553.375L522.1250000000001 740.875A31.25 31.25 0 0 1 477.8750000000001 740.875L290.3750000000001 553.375A31.25 31.25 0 1 1 334.6250000000001 509.1250000000001L468.75 643.3125V281.25A31.25 31.25 0 0 1 531.25 281.25" />
    <glyph glyph-name="arrow-up-square"
      unicode="&#xEA41;"
      horiz-adv-x="1000" d="M937.5 875A62.5 62.5 0 0 1 875 937.5H125A62.5 62.5 0 0 1 62.5 875V125A62.5 62.5 0 0 1 125 62.5H875A62.5 62.5 0 0 1 937.5 125zM0 875A125 125 0 0 0 125 1000H875A125 125 0 0 0 1000 875V125A125 125 0 0 0 875 0H125A125 125 0 0 0 0 125zM531.25 281.25A31.25 31.25 0 0 0 468.75 281.25V643.3125L334.625 509.125A31.25 31.25 0 1 0 290.375 553.375L477.875 740.875A31.25 31.25 0 0 0 522.125 740.875L709.625 553.375A31.25 31.25 0 0 0 665.3749999999999 509.125L531.25 643.3125z" />
    <glyph glyph-name="arrow-up"
      unicode="&#xEA42;"
      horiz-adv-x="1000" d="M500 62.5A31.25 31.25 0 0 1 531.25 93.75V830.8125L727.875 634.125A31.25 31.25 0 0 1 772.1250000000001 678.375L522.1250000000001 928.375A31.25 31.25 0 0 1 477.8750000000001 928.375L227.8750000000001 678.375A31.25 31.25 0 1 1 272.1250000000001 634.125L468.75 830.8125V93.75A31.25 31.25 0 0 1 500 62.5" />
    <glyph glyph-name="arrows-angle-contract"
      unicode="&#xEA43;"
      horiz-adv-x="1000" d="M10.75 10.75A31.25 31.25 0 0 1 54.9375 10.75L310.9375 266.75V93.75A31.25 31.25 0 1 1 373.4375 93.75V342.1875A31.25 31.25 0 0 1 342.1875 373.4375H93.75A31.25 31.25 0 0 1 93.75 310.9375H266.75L10.75 54.9375A31.25 31.25 0 0 1 10.75 10.7499999999999M989.25 989.25A31.25 31.25 0 0 1 945.0624999999998 989.25L689.0624999999999 733.25V906.25A31.25 31.25 0 1 1 626.5624999999999 906.25V657.8125A31.25 31.25 0 0 1 657.8124999999999 626.5625H906.25A31.25 31.25 0 0 1 906.25 689.0625H733.25L989.25 945.0625A31.25 31.25 0 0 1 989.25 989.25" />
    <glyph glyph-name="arrows-angle-expand"
      unicode="&#xEA44;"
      horiz-adv-x="1000" d="M364.25 364.25A31.25 31.25 0 0 1 320.0625 364.25L64.0625 108.25V281.25A31.25 31.25 0 0 1 1.5625 281.25V32.8125A31.25 31.25 0 0 1 32.8125 1.5625H281.25A31.25 31.25 0 0 1 281.25 64.0625H108.25L364.25 320.0625A31.25 31.25 0 0 1 364.25 364.2500000000001M635.75 635.7500000000001A31.25 31.25 0 0 1 679.9375000000001 635.7500000000001L935.9375000000002 891.7500000000001V718.75A31.25 31.25 0 1 1 998.4375000000002 718.75V967.1875A31.25 31.25 0 0 1 967.1875000000002 998.4375H718.75A31.25 31.25 0 0 1 718.75 935.9375H891.75L635.75 679.9375A31.25 31.25 0 0 1 635.75 635.75" />
    <glyph glyph-name="arrows-collapse-vertical"
      unicode="&#xEA45;"
      horiz-adv-x="1000" d="M500 62.5A31.25 31.25 0 0 0 468.75 93.75V906.25A31.25 31.25 0 0 0 531.25 906.25V93.75A31.25 31.25 0 0 0 500 62.5M0 500A31.25 31.25 0 0 0 31.25 531.25H268.3125L196.625 602.875A31.25 31.25 0 1 0 240.875 647.125L365.875 522.125A31.25 31.25 0 0 0 365.875 477.875L240.875 352.875A31.25 31.25 0 0 0 196.625 397.1250000000001L268.3125 468.75H31.25A31.25 31.25 0 0 0 0 500M731.6875 468.75L803.3750000000001 397.125A31.25 31.25 0 0 0 759.125 352.8749999999999L634.125 477.8749999999999A31.25 31.25 0 0 0 634.125 522.125L759.125 647.125A31.25 31.25 0 0 0 803.3750000000001 602.875L731.6875 531.25H968.75A31.25 31.25 0 0 0 968.75 468.75z" />
    <glyph glyph-name="arrows-collapse"
      unicode="&#xEA46;"
      horiz-adv-x="1000" d="M62.5 500A31.25 31.25 0 0 0 93.75 531.25H906.25A31.25 31.25 0 0 0 906.25 468.75H93.75A31.25 31.25 0 0 0 62.5 500M500 1000A31.25 31.25 0 0 0 531.25 968.75V731.6875L602.875 803.375A31.25 31.25 0 0 0 647.1250000000001 759.125L522.1250000000001 634.125A31.25 31.25 0 0 0 477.8750000000001 634.125L352.8750000000001 759.125A31.25 31.25 0 1 0 397.1250000000001 803.375L468.75 731.6875V968.75A31.25 31.25 0 0 0 500 1000M468.75 268.3125L397.125 196.6249999999999A31.25 31.25 0 0 0 352.875 240.875L477.875 365.875A31.25 31.25 0 0 0 522.125 365.875L647.125 240.875A31.25 31.25 0 0 0 602.8749999999999 196.6249999999999L531.25 268.3125V31.25A31.25 31.25 0 0 0 468.75 31.25z" />
    <glyph glyph-name="arrows-expand-vertical"
      unicode="&#xEA47;"
      horiz-adv-x="1000" d="M500 62.5A31.25 31.25 0 0 0 468.75 93.75V906.25A31.25 31.25 0 0 0 531.25 906.25V93.75A31.25 31.25 0 0 0 500 62.5M9.125 477.875A31.25 31.25 0 0 0 9.125 522.125L134.125 647.125A31.25 31.25 0 1 0 178.375 602.875L106.6875 531.25H343.75A31.25 31.25 0 0 0 343.75 468.75H106.6875L178.375 397.125A31.25 31.25 0 0 0 134.125 352.8749999999999zM625 500A31.25 31.25 0 0 0 656.25 531.25H893.3125L821.6249999999999 602.875A31.25 31.25 0 0 0 865.875 647.125L990.875 522.125A31.25 31.25 0 0 0 990.875 477.875L865.875 352.875A31.25 31.25 0 0 0 821.6249999999999 397.1250000000001L893.3125 468.75H656.25A31.25 31.25 0 0 0 625 500" />
    <glyph glyph-name="arrows-expand"
      unicode="&#xEA48;"
      horiz-adv-x="1000" d="M62.5 500A31.25 31.25 0 0 0 93.75 531.25H906.25A31.25 31.25 0 0 0 906.25 468.75H93.75A31.25 31.25 0 0 0 62.5 500M477.875 990.875A31.25 31.25 0 0 0 522.125 990.875L647.125 865.875A31.25 31.25 0 0 0 602.8749999999999 821.625L531.25 893.3125V656.25A31.25 31.25 0 0 0 468.75 656.25V893.3125L397.125 821.625A31.25 31.25 0 1 0 352.875 865.875zM500 375A31.25 31.25 0 0 0 531.25 343.75V106.6875L602.875 178.3750000000001A31.25 31.25 0 0 0 647.1250000000001 134.125L522.1250000000001 9.125A31.25 31.25 0 0 0 477.8750000000001 9.125L352.8750000000001 134.125A31.25 31.25 0 0 0 397.1250000000001 178.3750000000001L468.75 106.6875V343.75A31.25 31.25 0 0 0 500 375" />
    <glyph glyph-name="arrows-fullscreen"
      unicode="&#xEA49;"
      horiz-adv-x="1000" d="M364.25 364.25A31.25 31.25 0 0 1 320.0625 364.25L64.0625 108.25V281.25A31.25 31.25 0 0 1 1.5625 281.25V32.8125A31.25 31.25 0 0 1 32.8125 1.5625H281.25A31.25 31.25 0 0 1 281.25 64.0625H108.25L364.25 320.0625A31.25 31.25 0 0 1 364.25 364.2500000000001M635.75 364.2500000000001A31.25 31.25 0 0 0 679.9375000000001 364.2500000000001L935.9375000000002 108.2500000000001V281.25A31.25 31.25 0 1 0 998.4375000000002 281.25V32.8125A31.25 31.25 0 0 0 967.1875000000002 1.5625H718.75A31.25 31.25 0 0 0 718.75 64.0625H891.75L635.75 320.0625A31.25 31.25 0 0 0 635.75 364.2500000000001M635.75 635.7500000000001A31.25 31.25 0 0 1 679.9375000000001 635.7500000000001L935.9375000000002 891.7500000000001V718.75A31.25 31.25 0 1 1 998.4375000000002 718.75V967.1875A31.25 31.25 0 0 1 967.1875000000002 998.4375H718.75A31.25 31.25 0 0 1 718.75 935.9375H891.75L635.75 679.9375A31.25 31.25 0 0 1 635.75 635.75M364.25 635.75A31.25 31.25 0 0 0 320.0625 635.75L64.0625 891.75V718.75A31.25 31.25 0 0 0 1.5625 718.75V967.1875A31.25 31.25 0 0 0 32.8125 998.4375H281.25A31.25 31.25 0 0 0 281.25 935.9375H108.25L364.25 679.9375A31.25 31.25 0 0 0 364.25 635.75" />
    <glyph glyph-name="arrows-move"
      unicode="&#xEA4A;"
      horiz-adv-x="1000" d="M477.875 990.875A31.25 31.25 0 0 0 522.125 990.875L647.125 865.875A31.25 31.25 0 0 0 602.8749999999999 821.625L531.25 893.3125V656.25A31.25 31.25 0 0 0 468.75 656.25V893.3125L397.125 821.625A31.25 31.25 0 1 0 352.875 865.875zM500 375A31.25 31.25 0 0 0 531.25 343.75V106.6875L602.875 178.3750000000001A31.25 31.25 0 0 0 647.1250000000001 134.125L522.1250000000001 9.125A31.25 31.25 0 0 0 477.8750000000001 9.125L352.8750000000001 134.125A31.25 31.25 0 0 0 397.1250000000001 178.3750000000001L468.75 106.6875V343.75A31.25 31.25 0 0 0 500 375M9.125 477.875A31.25 31.25 0 0 0 9.125 522.125L134.125 647.125A31.25 31.25 0 1 0 178.375 602.875L106.6875 531.25H343.75A31.25 31.25 0 0 0 343.75 468.75H106.6875L178.375 397.125A31.25 31.25 0 0 0 134.125 352.8749999999999zM625 500A31.25 31.25 0 0 0 656.25 531.25H893.3125L821.6249999999999 602.875A31.25 31.25 0 0 0 865.875 647.125L990.875 522.125A31.25 31.25 0 0 0 990.875 477.875L865.875 352.875A31.25 31.25 0 0 0 821.6249999999999 397.1250000000001L893.3125 468.75H656.25A31.25 31.25 0 0 0 625 500" />
    <glyph glyph-name="arrows-vertical"
      unicode="&#xEA4B;"
      horiz-adv-x="1000" d="M522.125 71.625A31.25 31.25 0 0 0 477.8749999999999 71.625L352.875 196.625A31.25 31.25 0 0 0 397.125 240.8750000000001L468.75 169.1875V830.8125L397.125 759.125A31.25 31.25 0 1 0 352.875 803.375L477.875 928.375A31.25 31.25 0 0 0 522.125 928.375L647.125 803.375A31.25 31.25 0 0 0 602.8749999999999 759.125L531.25 830.8125V169.1875L602.875 240.8750000000001A31.25 31.25 0 0 0 647.1250000000001 196.625z" />
    <glyph glyph-name="arrows"
      unicode="&#xEA4C;"
      horiz-adv-x="1000" d="M71.625 477.875A31.25 31.25 0 0 0 71.625 522.125L196.625 647.125A31.25 31.25 0 1 0 240.875 602.875L169.1875 531.25H830.8125L759.1249999999999 602.875A31.25 31.25 0 0 0 803.375 647.125L928.375 522.125A31.25 31.25 0 0 0 928.375 477.875L803.375 352.875A31.25 31.25 0 0 0 759.1249999999999 397.1250000000001L830.8125 468.75H169.1875L240.875 397.125A31.25 31.25 0 0 0 196.625 352.8749999999999z" />
    <glyph glyph-name="bag-check-fill"
      unicode="&#xEA4D;"
      horiz-adv-x="1000" d="M656.25 781.25A156.25 156.25 0 0 1 343.75 781.25V750H656.25zM718.75 781.25V750H937.5V125A125 125 0 0 0 812.5 0H187.5A125 125 0 0 0 62.5 125V750H281.25V781.25A218.75 218.75 0 1 0 718.75 781.25M678.375 446.625A31.25 31.25 0 0 1 634.1249999999999 490.8750000000001L468.75 325.4375L397.125 397.125A31.25 31.25 0 1 1 352.875 352.8749999999999L446.625 259.1249999999999A31.25 31.25 0 0 1 490.875 259.1249999999999z" />
    <glyph glyph-name="bag-check"
      unicode="&#xEA4E;"
      horiz-adv-x="1000" d="M678.375 490.8749999999999A31.25 31.25 0 0 0 678.375 446.6249999999999L490.8749999999999 259.1249999999999A31.25 31.25 0 0 0 446.625 259.1249999999999L352.875 352.8749999999999A31.25 31.25 0 0 0 397.125 397.125L468.75 325.4375L634.125 490.8750000000001A31.25 31.25 0 0 0 678.3750000000001 490.8750000000001M500 937.5A156.25 156.25 0 0 0 656.25 781.25V750H343.75V781.25A156.25 156.25 0 0 0 500 937.5M718.75 750V781.25A218.75 218.75 0 1 1 281.25 781.25V750H62.5V125A125 125 0 0 1 187.5 0H812.5A125 125 0 0 1 937.5 125V750zM125 687.5H875V125A62.5 62.5 0 0 0 812.5 62.5H187.5A62.5 62.5 0 0 0 125 125z" />
    <glyph glyph-name="bag-dash-fill"
      unicode="&#xEA4F;"
      horiz-adv-x="1000" d="M656.25 781.25A156.25 156.25 0 0 1 343.75 781.25V750H656.25zM718.75 781.25V750H937.5V125A125 125 0 0 0 812.5 0H187.5A125 125 0 0 0 62.5 125V750H281.25V781.25A218.75 218.75 0 1 0 718.75 781.25M375 406.25A31.25 31.25 0 0 1 375 343.75H625A31.25 31.25 0 0 1 625 406.25z" />
    <glyph glyph-name="bag-dash"
      unicode="&#xEA50;"
      horiz-adv-x="1000" d="M343.75 375A31.25 31.25 0 0 0 375 406.25H625A31.25 31.25 0 0 0 625 343.75H375A31.25 31.25 0 0 0 343.75 375M500 937.5A156.25 156.25 0 0 0 656.25 781.25V750H343.75V781.25A156.25 156.25 0 0 0 500 937.5M718.75 750V781.25A218.75 218.75 0 1 1 281.25 781.25V750H62.5V125A125 125 0 0 1 187.5 0H812.5A125 125 0 0 1 937.5 125V750zM125 687.5H875V125A62.5 62.5 0 0 0 812.5 62.5H187.5A62.5 62.5 0 0 0 125 125z" />
    <glyph glyph-name="bag-fill"
      unicode="&#xEA51;"
      horiz-adv-x="1000" d="M500 937.5A156.25 156.25 0 0 0 656.25 781.25V750H343.75V781.25A156.25 156.25 0 0 0 500 937.5M718.75 750V781.25A218.75 218.75 0 1 1 281.25 781.25V750H62.5V125A125 125 0 0 1 187.5 0H812.5A125 125 0 0 1 937.5 125V750z" />
    <glyph glyph-name="bag-heart-fill"
      unicode="&#xEA52;"
      horiz-adv-x="1000" d="M718.75 750V781.25A218.75 218.75 0 1 1 281.25 781.25V750H62.5V125A125 125 0 0 1 187.5 0H812.5A125 125 0 0 1 937.5 125V750zM500 937.5A156.25 156.25 0 0 0 656.25 781.25V750H343.75V781.25A156.25 156.25 0 0 0 500 937.5M500 500.4375C604 607.375 864.0625 420.25 500 179.6875C135.9375 420.3125 396 607.375 500 500.4375" />
    <glyph glyph-name="bag-heart"
      unicode="&#xEA53;"
      horiz-adv-x="1000" d="M656.25 781.25A156.25 156.25 0 0 1 343.75 781.25V750H656.25zM718.75 781.25V750H937.5V125A125 125 0 0 0 812.5 0H187.5A125 125 0 0 0 62.5 125V750H281.25V781.25A218.75 218.75 0 1 0 718.75 781.25M875 125V687.5H125V125A62.5 62.5 0 0 1 187.5 62.5H812.5A62.5 62.5 0 0 1 875 125M500 500.4375C604 607.375 864.0625 420.25 500 179.6875C135.9375 420.3125 396 607.375 500 500.4375" />
    <glyph glyph-name="bag-plus-fill"
      unicode="&#xEA54;"
      horiz-adv-x="1000" d="M656.25 781.25A156.25 156.25 0 0 1 343.75 781.25V750H656.25zM718.75 781.25V750H937.5V125A125 125 0 0 0 812.5 0H187.5A125 125 0 0 0 62.5 125V750H281.25V781.25A218.75 218.75 0 1 0 718.75 781.25M531.25 500A31.25 31.25 0 0 1 468.75 500V406.25H375A31.25 31.25 0 0 1 375 343.75H468.75V250A31.25 31.25 0 0 1 531.25 250V343.75H625A31.25 31.25 0 0 1 625 406.25H531.25z" />
    <glyph glyph-name="bag-plus"
      unicode="&#xEA55;"
      horiz-adv-x="1000" d="M500 531.25A31.25 31.25 0 0 0 531.25 500V406.25H625A31.25 31.25 0 0 0 625 343.75H531.25V250A31.25 31.25 0 0 0 468.75 250V343.75H375A31.25 31.25 0 0 0 375 406.25H468.75V500A31.25 31.25 0 0 0 500 531.25M500 937.5A156.25 156.25 0 0 0 656.25 781.25V750H343.75V781.25A156.25 156.25 0 0 0 500 937.5M718.75 750V781.25A218.75 218.75 0 1 1 281.25 781.25V750H62.5V125A125 125 0 0 1 187.5 0H812.5A125 125 0 0 1 937.5 125V750zM125 687.5H875V125A62.5 62.5 0 0 0 812.5 62.5H187.5A62.5 62.5 0 0 0 125 125z" />
    <glyph glyph-name="bag-x-fill"
      unicode="&#xEA56;"
      horiz-adv-x="1000" d="M656.25 781.25A156.25 156.25 0 0 1 343.75 781.25V750H656.25zM718.75 781.25V750H937.5V125A125 125 0 0 0 812.5 0H187.5A125 125 0 0 0 62.5 125V750H281.25V781.25A218.75 218.75 0 1 0 718.75 781.25M428.375 490.8749999999999A31.25 31.25 0 1 1 384.125 446.6249999999999L455.8125 375L384.125 303.375A31.25 31.25 0 0 1 428.375 259.1249999999999L500 330.8125L571.625 259.1249999999999A31.25 31.25 0 0 1 615.8750000000001 303.375L544.1875 375L615.8750000000001 446.625A31.25 31.25 0 0 1 571.625 490.8750000000001L500 419.1875z" />
    <glyph glyph-name="bag-x"
      unicode="&#xEA57;"
      horiz-adv-x="1000" d="M384.125 490.8749999999999A31.25 31.25 0 0 0 428.375 490.8749999999999L500 419.1875L571.625 490.8750000000001A31.25 31.25 0 1 0 615.8750000000001 446.625L544.1875 375L615.8750000000001 303.375A31.25 31.25 0 0 0 571.625 259.1249999999999L500 330.8125L428.375 259.1249999999999A31.25 31.25 0 0 0 384.125 303.375L455.8125 375L384.125 446.625A31.25 31.25 0 0 0 384.125 490.8750000000001M500 937.5A156.25 156.25 0 0 0 656.25 781.25V750H343.75V781.25A156.25 156.25 0 0 0 500 937.5M718.75 750V781.25A218.75 218.75 0 1 1 281.25 781.25V750H62.5V125A125 125 0 0 1 187.5 0H812.5A125 125 0 0 1 937.5 125V750zM125 687.5H875V125A62.5 62.5 0 0 0 812.5 62.5H187.5A62.5 62.5 0 0 0 125 125z" />
    <glyph glyph-name="bag"
      unicode="&#xEA58;"
      horiz-adv-x="1000" d="M500 937.5A156.25 156.25 0 0 0 656.25 781.25V750H343.75V781.25A156.25 156.25 0 0 0 500 937.5M718.75 750V781.25A218.75 218.75 0 1 1 281.25 781.25V750H62.5V125A125 125 0 0 1 187.5 0H812.5A125 125 0 0 1 937.5 125V750zM125 687.5H875V125A62.5 62.5 0 0 0 812.5 62.5H187.5A62.5 62.5 0 0 0 125 125z" />
    <glyph glyph-name="battery-charging"
      unicode="&#xEA59;"
      horiz-adv-x="1000" d="M599.0625 839.5A31.25 31.25 0 0 0 613.1875000000001 803.25L542.3125 573H666.6875A31.25 31.25 0 0 0 689.4375 520.3125L356.0625000000001 166.1250000000001A31.25 31.25 0 0 0 303.4375000000001 196.7500000000001L374.375 427.0625H250A31.25 31.25 0 0 0 227.25 479.75L560.5625000000001 833.9375A31.25 31.25 0 0 0 599.0625 839.5625zM125 750H395.75L337 687.5H125A62.5 62.5 0 0 1 62.5 625V375A62.5 62.5 0 0 1 125 312.5H273.75L254.5 250H125A125 125 0 0 0 0 375V625A125 125 0 0 0 125 750M125 625H278.125L181.75 522.5625A93.75 93.75 0 0 1 207.0625 375H125zM662.1875 750L642.9375 687.5H750A62.5 62.5 0 0 0 812.5 625V375A62.5 62.5 0 0 0 750 312.5H579.75L520.875 250H750A125 125 0 0 1 875 375V625A125 125 0 0 1 750 750zM750 375H638.5625L734.9375 477.4375Q744.0625000000001 487.1875 750 498.6874999999999zM750 584.625V625H709.625A93.75 93.75 0 0 0 750 584.625M1000 500A93.75 93.75 0 0 0 906.25 406.25V593.75A93.75 93.75 0 0 0 1000 500" />
    <glyph glyph-name="battery-full"
      unicode="&#xEA5A;"
      horiz-adv-x="1000" d="M125 625H750V375H125zM125 750A125 125 0 0 1 0 625V375A125 125 0 0 1 125 250H750A125 125 0 0 1 875 375V625A125 125 0 0 1 750 750zM750 687.5A62.5 62.5 0 0 0 812.5 625V375A62.5 62.5 0 0 0 750 312.5H125A62.5 62.5 0 0 0 62.5 375V625A62.5 62.5 0 0 0 125 687.5zM1000 500A93.75 93.75 0 0 0 906.25 406.25V593.75A93.75 93.75 0 0 0 1000 500" />
    <glyph glyph-name="battery-half"
      unicode="&#xEA5B;"
      horiz-adv-x="1000" d="M125 625H437.5V375H125zM125 750A125 125 0 0 1 0 625V375A125 125 0 0 1 125 250H750A125 125 0 0 1 875 375V625A125 125 0 0 1 750 750zM750 687.5A62.5 62.5 0 0 0 812.5 625V375A62.5 62.5 0 0 0 750 312.5H125A62.5 62.5 0 0 0 62.5 375V625A62.5 62.5 0 0 0 125 687.5zM1000 500A93.75 93.75 0 0 0 906.25 406.25V593.75A93.75 93.75 0 0 0 1000 500" />
    <glyph glyph-name="battery-low"
      unicode="&#xEA5C;"
      horiz-adv-x="1000" d="M125 625H250V375H125zM125 750A125 125 0 0 1 0 625V375A125 125 0 0 1 125 250H750A125 125 0 0 1 875 375V625A125 125 0 0 1 750 750zM750 687.5A62.5 62.5 0 0 0 812.5 625V375A62.5 62.5 0 0 0 750 312.5H125A62.5 62.5 0 0 0 62.5 375V625A62.5 62.5 0 0 0 125 687.5zM1000 500A93.75 93.75 0 0 0 906.25 406.25V593.75A93.75 93.75 0 0 0 1000 500" />
    <glyph glyph-name="battery"
      unicode="&#xEA5D;"
      horiz-adv-x="1000" d="M0 625A125 125 0 0 0 125 750H750A125 125 0 0 0 875 625V375A125 125 0 0 0 750 250H125A125 125 0 0 0 0 375zM125 687.5A62.5 62.5 0 0 1 62.5 625V375A62.5 62.5 0 0 1 125 312.5H750A62.5 62.5 0 0 1 812.5 375V625A62.5 62.5 0 0 1 750 687.5zM1000 500A93.75 93.75 0 0 0 906.25 406.25V593.75A93.75 93.75 0 0 0 1000 500" />
    <glyph glyph-name="bell-fill"
      unicode="&#xEA5E;"
      horiz-adv-x="1000" d="M500 0A125 125 0 0 1 625 125H375A125 125 0 0 1 500 0M562.1875 931.3125A62.5 62.5 0 1 1 437.8125 931.3125A312.5 312.5 0 0 1 187.5 625C187.5 556.375 156.25 250 62.5 187.5H937.5C843.75 250 812.5 556.375 812.5 625C812.5 776.25 705 902.5 562.1875000000001 931.3125" />
    <glyph glyph-name="bell-slash-fill"
      unicode="&#xEA5F;"
      horiz-adv-x="1000" d="M322.75 125H937.5C843.75 187.5 812.5 493.8750000000001 812.5 562.5Q812.5 587.25 808.75 611zM715.75 788.5625A312.5 312.5 0 0 1 562.1875 868.75A62.5 62.5 0 1 1 437.8125 868.75A312.5 312.5 0 0 1 187.5 562.5C187.5 506.375 166.5625 291.1250000000001 107.625 180.4375zM625 62.5A125 125 0 1 0 375 62.5zM39.0625 23.4375A33.125 33.125 0 0 1 85.9375 -23.4375L1007.8125 898.4375A33.125 33.125 0 0 1 960.9375 945.3125z" />
    <glyph glyph-name="bell-slash"
      unicode="&#xEA60;"
      horiz-adv-x="1000" d="M322.75 125H937.5C918.8125 137.4375 902.6875 159.5625 888.75 187.5C832.5 300 812.5 507.5 812.5 562.5Q812.5 587.25 808.75 611L750.1249999999999 552.375C751.3749999999999 508.125 759.9374999999999 417.7500000000001 778.6875 328.625C788.75 280.6875 802.25 230.7499999999999 820.125 187.5H385.25zM671.5625000000001 744.375A250 250 0 0 1 549.8125 807.5L500 817.6875L450.1875 807.625A250 250 0 0 1 250 562.5C250 523.25 241.625 425.1875 221.3125 328.625Q216.625 306.2499999999999 210.9375 283.75L107.625 180.4374999999999Q109.5 183.8749999999999 111.3125 187.4999999999999C167.4375 300 187.5 507.5 187.5 562.5C187.5 713.75 295 840 437.8125 868.8125A62.5 62.5 0 1 0 562.1875 868.8125C621.0625 856.9375 673.9375 828.5 715.7499999999999 788.5625zM625 62.5A125 125 0 1 0 375 62.5zM39.0625 23.4375A33.125 33.125 0 0 1 85.9375 -23.4375L1007.8125 898.4375A33.125 33.125 0 0 1 960.9375 945.3125z" />
    <glyph glyph-name="bell"
      unicode="&#xEA61;"
      horiz-adv-x="1000" d="M500 0A125 125 0 0 1 625 125H375A125 125 0 0 1 500 0M500 880.125L450.1875 870.0625A250 250 0 0 1 250 625C250 585.75 241.625 487.6875 221.3125 391.125C211.3125 343.1875 197.8125 293.2499999999999 179.875 250H820.125C802.1874999999999 293.25 788.75 343.125 778.6875 391.125C758.375 487.6875 750 585.75 750 625A250 250 0 0 1 549.8125 870zM888.75 250C902.6875000000002 222.0625 918.8125 199.9375 937.5 187.5H62.5C81.1875 199.9375 97.3125 222.0625 111.25 250C167.5 362.5 187.5 570 187.5 625C187.5 776.25 295 902.5 437.8125 931.3125A62.5 62.5 0 1 0 562.1875 931.3125A312.5 312.5 0 0 0 812.5 625C812.5 570 832.5 362.5 888.75 250" />
    <glyph glyph-name="bluetooth"
      unicode="&#xEA62;"
      horiz-adv-x="1000" d="M533.9375 753.25L616.1875 671L533.9375 588.75zM533.9375 246.75L616.1875 329.0000000000001L533.9375 411.25zM445.8125 499.4375L267.1875 679.1875L318.875 730.875L461.0625 588.75V929.5L719.625 671L549.1875 499.375L720.75 327.8125000000001L462.25 69.25V411.25L318.875 269.1250000000001L267.1875 320.8125zM493.9375 0C712.5625 0 862.9374999999999 103.4375 862.9374999999999 500.625C862.9374999999999 896.5625 712.5624999999999 1000 493.9999999999999 1000S125 896.5625 125 499.375C125 103.5 275.4375 0 494 0z" />
    <glyph glyph-name="book-fill"
      unicode="&#xEA63;"
      horiz-adv-x="1000" d="M500 888.5625C438.4375 941.5 349.1875 949.375 267.9375 941.25C173.3125 931.6875 77.8125 899.25 18.3125 872.1875A31.25 31.25 0 0 1 0 843.75V156.25A31.25 31.25 0 0 1 44.1875 127.8125C99.3125 152.8125 188.125 182.875 274.1875 191.5625C362.25 200.4374999999999 436.0625 186.125 475.625 136.7499999999999A31.25 31.25 0 0 1 524.375 136.7499999999999C563.9375 186.1249999999999 637.75 200.4374999999999 725.75 191.5625C811.875 182.875 900.7499999999998 152.8125 955.8125 127.8125A31.25 31.25 0 0 1 1000 156.25V843.75A31.25 31.25 0 0 1 981.6875 872.1875C922.1875 899.25 826.6875 931.6875 732.0625000000001 941.25C650.8125 949.4375 561.5625 941.5 500 888.5625" />
    <glyph glyph-name="book-half"
      unicode="&#xEA64;"
      horiz-adv-x="1000" d="M531.25 832.0625C572.125 875.125 642.625 887.4375 725.75 879.0625C802.875 871.3125 882.1875 846.375 937.5 823.25V203.0625C880.125 224.9375 805.8125 246.3125 732.0625000000001 253.6875000000001C663.6875000000001 260.6250000000001 589.6875 256.125 531.25 222.9375zM500 888.5625C438.4375 941.5 349.1875 949.375 267.9375 941.25C173.3125 931.6875 77.8125 899.25 18.3125 872.1875A31.25 31.25 0 0 1 0 843.75V156.25A31.25 31.25 0 0 1 44.1875 127.8125C99.3125 152.8125 188.125 182.875 274.1875 191.5625C362.25 200.4374999999999 436.0625 186.125 475.625 136.7499999999999A31.25 31.25 0 0 1 524.375 136.7499999999999C563.9375 186.1249999999999 637.75 200.4374999999999 725.75 191.5625C811.875 182.875 900.7499999999998 152.8125 955.8125 127.8125A31.25 31.25 0 0 1 1000 156.25V843.75A31.25 31.25 0 0 1 981.6875 872.1875C922.1875 899.25 826.6875 931.6875 732.0625000000001 941.25C650.8125 949.4375 561.5625 941.5 500 888.5625" />
    <glyph glyph-name="book"
      unicode="&#xEA65;"
      horiz-adv-x="1000" d="M62.5 823.25C117.8125 846.375 197.125 871.3125 274.25 879.0625C357.375 887.4375 427.875 875.125 468.75 832.0625V222.9375C410.3125 256.0625 336.25 260.625 267.9375 253.75C194.1875 246.2500000000001 119.8125 224.9375 62.5 203.0625zM531.25 832.0625C572.125 875.125 642.625 887.4375 725.75 879.0625C802.875 871.3125 882.1875 846.375 937.5 823.25V203.0625C880.125 224.9375 805.8125 246.3125 732.0625000000001 253.6875000000001C663.6875000000001 260.6250000000001 589.6875 256.125 531.25 222.9375zM500 888.5625C438.4375 941.5 349.1875 949.375 267.9375 941.25C173.3125 931.6875 77.8125 899.25 18.3125 872.1875A31.25 31.25 0 0 1 0 843.75V156.25A31.25 31.25 0 0 1 44.1875 127.8125C99.3125 152.8125 188.125 182.875 274.1875 191.5625C362.25 200.4374999999999 436.0625 186.125 475.625 136.7499999999999A31.25 31.25 0 0 1 524.375 136.7499999999999C563.9375 186.1249999999999 637.75 200.4374999999999 725.75 191.5625C811.875 182.875 900.7499999999998 152.8125 955.8125 127.8125A31.25 31.25 0 0 1 1000 156.25V843.75A31.25 31.25 0 0 1 981.6875 872.1875C922.1875 899.25 826.6875 931.6875 732.0625000000001 941.25C650.8125 949.4375 561.5625 941.5 500 888.5625" />
    <glyph glyph-name="bookmark-check-fill"
      unicode="&#xEA66;"
      horiz-adv-x="1000" d="M125 31.25V875A125 125 0 0 0 250 1000H750A125 125 0 0 0 875 875V31.25A31.25 31.25 0 0 0 828.75 3.8125L500 183.1875L171.25 3.8125A31.25 31.25 0 0 0 125 31.25M678.375 634.125A31.25 31.25 0 0 1 634.1249999999999 678.375L468.75 512.9375L397.125 584.625A31.25 31.25 0 1 1 352.875 540.375L446.625 446.625A31.25 31.25 0 0 1 490.875 446.625z" />
    <glyph glyph-name="bookmark-check"
      unicode="&#xEA67;"
      horiz-adv-x="1000" d="M678.375 678.375A31.25 31.25 0 0 0 678.375 634.125L490.8749999999999 446.625A31.25 31.25 0 0 0 446.625 446.625L352.875 540.375A31.25 31.25 0 1 0 397.125 584.625L468.75 512.9375L634.125 678.375A31.25 31.25 0 0 0 678.3750000000001 678.375M125 875A125 125 0 0 0 250 1000H750A125 125 0 0 0 875 875V31.25A31.25 31.25 0 0 0 826.4375 5.25L500 181.1875L173.5625 5.25A31.25 31.25 0 0 0 125 31.25zM250 937.5A62.5 62.5 0 0 1 187.5 875V89.625L482.6875 244.75A31.25 31.25 0 0 0 517.3125 244.75L812.5 89.625V875A62.5 62.5 0 0 1 750 937.5z" />
    <glyph glyph-name="bookmark-dash-fill"
      unicode="&#xEA68;"
      horiz-adv-x="1000" d="M125 31.25V875A125 125 0 0 0 250 1000H750A125 125 0 0 0 875 875V31.25A31.25 31.25 0 0 0 828.75 3.8125L500 183.1875L171.25 3.8125A31.25 31.25 0 0 0 125 31.25M375 625A31.25 31.25 0 0 1 375 562.5H625A31.25 31.25 0 0 1 625 625z" />
    <glyph glyph-name="bookmark-dash"
      unicode="&#xEA69;"
      horiz-adv-x="1000" d="M343.75 593.75A31.25 31.25 0 0 0 375 625H625A31.25 31.25 0 0 0 625 562.5H375A31.25 31.25 0 0 0 343.75 593.75M125 875A125 125 0 0 0 250 1000H750A125 125 0 0 0 875 875V31.25A31.25 31.25 0 0 0 826.4375 5.25L500 181.1875L173.5625 5.25A31.25 31.25 0 0 0 125 31.25zM250 937.5A62.5 62.5 0 0 1 187.5 875V89.625L482.6875 244.75A31.25 31.25 0 0 0 517.3125 244.75L812.5 89.625V875A62.5 62.5 0 0 1 750 937.5z" />
    <glyph glyph-name="bookmark-fill"
      unicode="&#xEA6A;"
      horiz-adv-x="1000" d="M125 875V31.25A31.25 31.25 0 0 1 171.25 3.8125L500 183.1875L828.75 3.8125A31.25 31.25 0 0 1 875 31.25V875A125 125 0 0 1 750 1000H250A125 125 0 0 1 125 875" />
    <glyph glyph-name="bookmark-heart-fill"
      unicode="&#xEA6B;"
      horiz-adv-x="1000" d="M125 31.25A31.25 31.25 0 0 1 171.25 3.8125L500 183.1875L828.75 3.8125A31.25 31.25 0 0 1 875 31.25V875A125 125 0 0 1 750 1000H250A125 125 0 0 1 125 875zM500 724.375C586.6875 813.4375 803.375 657.5 500 457.0624999999999C196.625 657.5 413.3125 813.375 500 724.25z" />
    <glyph glyph-name="bookmark-heart"
      unicode="&#xEA6C;"
      horiz-adv-x="1000" d="M500 724.375C586.6875 813.4375 803.375 657.5 500 457.0624999999999C196.625 657.5 413.3125 813.375 500 724.25zM125 875A125 125 0 0 0 250 1000H750A125 125 0 0 0 875 875V31.25A31.25 31.25 0 0 0 826.4375 5.25L500 181.1875L173.5625 5.25A31.25 31.25 0 0 0 125 31.25zM250 937.5A62.5 62.5 0 0 1 187.5 875V89.625L482.6875 244.75A31.25 31.25 0 0 0 517.3125 244.75L812.5 89.625V875A62.5 62.5 0 0 1 750 937.5z" />
    <glyph glyph-name="bookmark-plus-fill"
      unicode="&#xEA6D;"
      horiz-adv-x="1000" d="M125 31.25V875A125 125 0 0 0 250 1000H750A125 125 0 0 0 875 875V31.25A31.25 31.25 0 0 0 828.75 3.8125L500 183.1875L171.25 3.8125A31.25 31.25 0 0 0 125 31.25M531.25 718.75A31.25 31.25 0 0 1 468.75 718.75V625H375A31.25 31.25 0 0 1 375 562.5H468.75V468.75A31.25 31.25 0 0 1 531.25 468.75V562.5H625A31.25 31.25 0 0 1 625 625H531.25z" />
    <glyph glyph-name="bookmark-plus"
      unicode="&#xEA6E;"
      horiz-adv-x="1000" d="M125 875A125 125 0 0 0 250 1000H750A125 125 0 0 0 875 875V31.25A31.25 31.25 0 0 0 826.4375 5.25L500 181.1875L173.5625 5.25A31.25 31.25 0 0 0 125 31.25zM250 937.5A62.5 62.5 0 0 1 187.5 875V89.625L482.6875 244.75A31.25 31.25 0 0 0 517.3125 244.75L812.5 89.625V875A62.5 62.5 0 0 1 750 937.5zM500 750A31.25 31.25 0 0 0 531.25 718.75V625H625A31.25 31.25 0 0 0 625 562.5H531.25V468.75A31.25 31.25 0 0 0 468.75 468.75V562.5H375A31.25 31.25 0 0 0 375 625H468.75V718.75A31.25 31.25 0 0 0 500 750" />
    <glyph glyph-name="bookmark-star-fill"
      unicode="&#xEA6F;"
      horiz-adv-x="1000" d="M125 31.25V875A125 125 0 0 0 250 1000H750A125 125 0 0 0 875 875V31.25A31.25 31.25 0 0 0 828.75 3.8125L500 183.1875L171.25 3.8125A31.25 31.25 0 0 0 125 31.25M510 743.75A11.125 11.125 0 0 1 490 743.75L450.3749999999999 663.4375A11.25 11.25 0 0 0 442 657.3125L353.25 644.4375A11.125 11.125 0 0 1 347.125 625.5L411.25 562.9375C413.875 560.375 415.0625 556.6875 414.4375 553.0625L399.375 464.6875A11.125 11.125 0 0 1 415.5 453.0000000000001L494.8749999999999 494.75A11.25 11.25 0 0 0 505.1874999999999 494.75L584.5624999999999 453.0000000000001A11.125 11.125 0 0 1 600.6249999999999 464.6875L585.5 553.125A11.25 11.25 0 0 0 588.6250000000001 563L652.8750000000001 625.5625A11.125 11.125 0 0 1 646.75 644.5L558 657.375A11.25 11.25 0 0 0 549.625 663.5z" />
    <glyph glyph-name="bookmark-star"
      unicode="&#xEA70;"
      horiz-adv-x="1000" d="M490 743.75A11.125 11.125 0 0 0 510 743.75L549.625 663.4375A11.25 11.25 0 0 1 558 657.3125L646.75 644.4375C655.8125 643.125 659.5000000000001 631.9375 652.8750000000001 625.5L588.75 562.9375A11.25 11.25 0 0 1 585.5625 553.0625L600.6875 464.6874999999999A11.125 11.125 0 0 0 584.5625000000001 453L505.1875000000001 494.7499999999999A11.25 11.25 0 0 1 494.8750000000001 494.7499999999999L415.5000000000001 453A11.125 11.125 0 0 0 399.4375000000001 464.6874999999999L414.5625000000001 553.0624999999999A11.25 11.25 0 0 1 411.4375000000001 562.9375L347.0625000000001 625.5A11.125 11.125 0 0 0 353.1875000000001 644.4375L441.9375000000001 657.3125A11.25 11.25 0 0 1 450.3125000000001 663.4375zM125 875A125 125 0 0 0 250 1000H750A125 125 0 0 0 875 875V31.25A31.25 31.25 0 0 0 826.4375 5.25L500 181.1875L173.5625 5.25A31.25 31.25 0 0 0 125 31.25zM250 937.5A62.5 62.5 0 0 1 187.5 875V89.625L482.6875 244.75A31.25 31.25 0 0 0 517.3125 244.75L812.5 89.625V875A62.5 62.5 0 0 1 750 937.5z" />
    <glyph glyph-name="bookmark-x-fill"
      unicode="&#xEA71;"
      horiz-adv-x="1000" d="M125 31.25V875A125 125 0 0 0 250 1000H750A125 125 0 0 0 875 875V31.25A31.25 31.25 0 0 0 828.75 3.8125L500 183.1875L171.25 3.8125A31.25 31.25 0 0 0 125 31.25M428.375 678.375A31.25 31.25 0 1 1 384.125 634.125L455.8125 562.5L384.125 490.8749999999999A31.25 31.25 0 1 1 428.375 446.6249999999999L500 518.3125L571.625 446.625A31.25 31.25 0 1 1 615.8750000000001 490.8750000000001L544.1875 562.5L615.8750000000001 634.125A31.25 31.25 0 0 1 571.625 678.375L500 606.6875z" />
    <glyph glyph-name="bookmark-x"
      unicode="&#xEA72;"
      horiz-adv-x="1000" d="M384.125 678.375A31.25 31.25 0 0 0 428.375 678.375L500 606.6875L571.625 678.375A31.25 31.25 0 1 0 615.8750000000001 634.125L544.1875 562.5L615.8750000000001 490.8749999999999A31.25 31.25 0 0 0 571.625 446.6249999999999L500 518.3125L428.375 446.625A31.25 31.25 0 1 0 384.125 490.8750000000001L455.8125 562.5L384.125 634.125A31.25 31.25 0 0 0 384.125 678.375M125 875A125 125 0 0 0 250 1000H750A125 125 0 0 0 875 875V31.25A31.25 31.25 0 0 0 826.4375 5.25L500 181.1875L173.5625 5.25A31.25 31.25 0 0 0 125 31.25zM250 937.5A62.5 62.5 0 0 1 187.5 875V89.625L482.6875 244.75A31.25 31.25 0 0 0 517.3125 244.75L812.5 89.625V875A62.5 62.5 0 0 1 750 937.5z" />
    <glyph glyph-name="bookmark"
      unicode="&#xEA73;"
      horiz-adv-x="1000" d="M125 875A125 125 0 0 0 250 1000H750A125 125 0 0 0 875 875V31.25A31.25 31.25 0 0 0 826.4375 5.25L500 181.1875L173.5625 5.25A31.25 31.25 0 0 0 125 31.25zM250 937.5A62.5 62.5 0 0 1 187.5 875V89.625L482.6875 244.75A31.25 31.25 0 0 0 517.3125 244.75L812.5 89.625V875A62.5 62.5 0 0 1 750 937.5z" />
    <glyph glyph-name="bookmarks-fill"
      unicode="&#xEA74;"
      horiz-adv-x="1000" d="M125 750A125 125 0 0 0 250 875H625A125 125 0 0 0 750 750V31.25A31.25 31.25 0 0 0 701.4375 5.25L437.5 181.1875L173.5625 5.25A31.25 31.25 0 0 0 125 31.25zM266.75 937.5A125 125 0 0 0 375 1000H750A125 125 0 0 0 875 875V156.25A31.25 31.25 0 0 0 826.4375 130.25L812.5 139.5V875A62.5 62.5 0 0 1 750 937.5z" />
    <glyph glyph-name="bookmarks"
      unicode="&#xEA75;"
      horiz-adv-x="1000" d="M125 750A125 125 0 0 0 250 875H625A125 125 0 0 0 750 750V31.25A31.25 31.25 0 0 0 701.4375 5.25L437.5 181.1875L173.5625 5.25A31.25 31.25 0 0 0 125 31.25zM250 812.5A62.5 62.5 0 0 1 187.5 750V89.625L420.1875 244.75A31.25 31.25 0 0 0 454.8125 244.75L687.5 89.625V750A62.5 62.5 0 0 1 625 812.5zM266.75 937.5H750A62.5 62.5 0 0 0 812.5 875V139.5L826.4375 130.25A31.25 31.25 0 0 1 875 156.25V875A125 125 0 0 1 750 1000H375A125 125 0 0 1 266.75 937.5" />
    <glyph glyph-name="bookshelf"
      unicode="&#xEA76;"
      horiz-adv-x="1000" d="M156.25 1000A31.25 31.25 0 0 0 187.5 968.75V875H812.5V968.75A31.25 31.25 0 0 0 875 968.75V31.25A31.25 31.25 0 0 0 812.5 31.25V62.5H187.5V31.25A31.25 31.25 0 0 0 125 31.25V968.75A31.25 31.25 0 0 0 156.25 1000M187.5 125H812.5V312.5H187.5zM187.5 375H812.5V562.5H187.5zM187.5 625H812.5V812.5H187.5z" />
    <glyph glyph-name="bootstrap-reboot"
      unicode="&#xEA77;"
      horiz-adv-x="1000" d="M72.5625 500A427.5 427.5 0 1 1 500.1875 927.5A36.25 36.25 0 1 0 500.1875 1000A500 500 0 1 0 90.4375 786.75L49 822.8125A36.25 36.25 0 0 0 63.1875 885.125L220.6875 928.25A36.25 36.25 0 0 0 266.1875 888.6875L245.4375000000001 726.6875A36.25 36.25 0 0 0 185.6875 703.9375L145.5 738.9375A425 425 0 0 1 72.5 500zM415.0625 270.5625V447.3125H513.1875L606.8125 270.5625H688.9375L586.0625 458.4375C642.125 477.1875000000001 675.25 527.5625 675.25 589.6875C675.25 675.3125 616.3125 730.0625 521.75 730.0625H343.75V270.5625zM415.0625 504.9375000000001V670.1875H513.1875C568.25 670.1875 601.6875 639 601.6875 587.6875C601.6875 535.1875 570.1875000000001 504.9375 515.0625000000001 504.9375z" />
    <glyph glyph-name="box-arrow-down-left"
      unicode="&#xEA78;"
      horiz-adv-x="1000" d="M460.25 218.75A31.25 31.25 0 0 1 491.5 187.5H906.25A93.75 93.75 0 0 1 1000 281.25V906.25A93.75 93.75 0 0 1 906.25 1000H281.25A93.75 93.75 0 0 1 187.5 906.25V491.5000000000001A31.25 31.25 0 1 1 250 491.5000000000001V906.25A31.25 31.25 0 0 0 281.25 937.5H906.25A31.25 31.25 0 0 0 937.5 906.25V281.25A31.25 31.25 0 0 0 906.25 250H491.5A31.25 31.25 0 0 1 460.25 218.75M0 31.25A31.25 31.25 0 0 1 31.25 0H343.75A31.25 31.25 0 0 1 343.75 62.5H106.6875L615.8750000000001 571.625A31.25 31.25 0 0 1 571.625 615.875L62.5 106.6875V343.75A31.25 31.25 0 0 1 0 343.75z" />
    <glyph glyph-name="box-arrow-down-right"
      unicode="&#xEA79;"
      horiz-adv-x="1000" d="M539.75 218.75A31.25 31.25 0 0 0 508.4999999999999 187.5H93.75A93.75 93.75 0 0 0 0 281.25V906.25A93.75 93.75 0 0 0 93.75 1000H718.75A93.75 93.75 0 0 0 812.5 906.25V491.5000000000001A31.25 31.25 0 0 0 750 491.5000000000001V906.25A31.25 31.25 0 0 1 718.75 937.5H93.75A31.25 31.25 0 0 1 62.5 906.25V281.25A31.25 31.25 0 0 1 93.75 250H508.4999999999999A31.25 31.25 0 0 0 539.75 218.75M1000 31.25A31.25 31.25 0 0 0 968.75 0H656.25A31.25 31.25 0 0 0 656.25 62.5H893.3125L384.125 571.625A31.25 31.25 0 1 0 428.375 615.875L937.5 106.6875V343.75A31.25 31.25 0 0 0 1000 343.75z" />
    <glyph glyph-name="box-arrow-down"
      unicode="&#xEA7A;"
      horiz-adv-x="1000" d="M218.75 375A31.25 31.25 0 0 0 187.5 406.25V906.25A31.25 31.25 0 0 0 218.75 937.5H781.25A31.25 31.25 0 0 0 812.5 906.25V406.25A31.25 31.25 0 0 0 781.25 375H656.25A31.25 31.25 0 0 1 656.25 312.5H781.25A93.75 93.75 0 0 1 875 406.25V906.25A93.75 93.75 0 0 1 781.25 1000H218.75A93.75 93.75 0 0 1 125 906.25V406.25A93.75 93.75 0 0 1 218.75 312.5H343.75A31.25 31.25 0 0 1 343.75 375zM477.875 9.125A31.25 31.25 0 0 1 522.125 9.125L709.625 196.625A31.25 31.25 0 0 1 665.3749999999999 240.8750000000001L531.25 106.6875V656.25A31.25 31.25 0 0 1 468.75 656.25V106.6875L334.625 240.8750000000001A31.25 31.25 0 0 1 290.375 196.625z" />
    <glyph glyph-name="box-arrow-in-down-left"
      unicode="&#xEA7B;"
      horiz-adv-x="1000" d="M602.25 843.75A31.25 31.25 0 0 1 571 875H156.25A93.75 93.75 0 0 1 62.5 781.25V156.25A93.75 93.75 0 0 1 156.25 62.5H781.25A93.75 93.75 0 0 1 875 156.25V571A31.25 31.25 0 0 1 812.5 571V156.25A31.25 31.25 0 0 0 781.25 125H156.25A31.25 31.25 0 0 0 125 156.25V781.25A31.25 31.25 0 0 0 156.25 812.5H571A31.25 31.25 0 0 1 602.25 843.75M312.5 343.75A31.25 31.25 0 0 1 343.75 312.5H656.25A31.25 31.25 0 0 1 656.25 375H419.1875L928.375 884.125A31.25 31.25 0 0 1 884.1249999999999 928.375L375 419.1875V656.25A31.25 31.25 0 0 1 312.5 656.25z" />
    <glyph glyph-name="box-arrow-in-down-right"
      unicode="&#xEA7C;"
      horiz-adv-x="1000" d="M397.75 843.75A31.25 31.25 0 0 0 429 875H843.75A93.75 93.75 0 0 0 937.5 781.25V156.25A93.75 93.75 0 0 0 843.75 62.5H218.75A93.75 93.75 0 0 0 125 156.25V571A31.25 31.25 0 1 0 187.5 571V156.25A31.25 31.25 0 0 1 218.75 125H843.75A31.25 31.25 0 0 1 875 156.25V781.25A31.25 31.25 0 0 1 843.75 812.5H429A31.25 31.25 0 0 0 397.75 843.75M687.5 343.75A31.25 31.25 0 0 0 656.25 312.5H343.75A31.25 31.25 0 0 0 343.75 375H580.8125L71.625 884.125A31.25 31.25 0 1 0 115.875 928.375L625 419.1875V656.25A31.25 31.25 0 0 0 687.5 656.25z" />
    <glyph glyph-name="box-arrow-in-down"
      unicode="&#xEA7D;"
      horiz-adv-x="1000" d="M218.75 625A31.25 31.25 0 0 1 187.5 593.75V93.75A31.25 31.25 0 0 1 218.75 62.5H781.25A31.25 31.25 0 0 1 812.5 93.75V593.75A31.25 31.25 0 0 1 781.25 625H656.25A31.25 31.25 0 0 0 656.25 687.5H781.25A93.75 93.75 0 0 0 875 593.75V93.75A93.75 93.75 0 0 0 781.25 0H218.75A93.75 93.75 0 0 0 125 93.75V593.75A93.75 93.75 0 0 0 218.75 687.5H343.75A31.25 31.25 0 0 0 343.75 625zM477.875 259.125A31.25 31.25 0 0 1 522.125 259.125L709.625 446.625A31.25 31.25 0 0 1 665.3749999999999 490.8750000000001L531.25 356.6875V906.25A31.25 31.25 0 0 1 468.75 906.25V356.6875L334.625 490.8749999999999A31.25 31.25 0 1 1 290.375 446.6249999999999z" />
    <glyph glyph-name="box-arrow-in-left"
      unicode="&#xEA7E;"
      horiz-adv-x="1000" d="M625 781.25A31.25 31.25 0 0 1 593.75 812.5H93.75A31.25 31.25 0 0 1 62.5 781.25V218.75A31.25 31.25 0 0 1 93.75 187.5H593.75A31.25 31.25 0 0 1 625 218.75V343.75A31.25 31.25 0 0 0 687.5 343.75V218.75A93.75 93.75 0 0 0 593.75 125H93.75A93.75 93.75 0 0 0 0 218.75V781.25A93.75 93.75 0 0 0 93.75 875H593.75A93.75 93.75 0 0 0 687.5 781.25V656.25A31.25 31.25 0 0 0 625 656.25zM259.125 477.875A31.25 31.25 0 0 0 259.125 522.125L446.625 709.625A31.25 31.25 0 1 0 490.875 665.375L356.6875 531.25H906.25A31.25 31.25 0 0 0 906.25 468.75H356.6875L490.8749999999999 334.625A31.25 31.25 0 0 0 446.625 290.3749999999999z" />
    <glyph glyph-name="box-arrow-in-right"
      unicode="&#xEA7F;"
      horiz-adv-x="1000" d="M375 781.25A31.25 31.25 0 0 0 406.25 812.5H906.25A31.25 31.25 0 0 0 937.5 781.25V218.75A31.25 31.25 0 0 0 906.25 187.5H406.25A31.25 31.25 0 0 0 375 218.75V343.75A31.25 31.25 0 0 1 312.5 343.75V218.75A93.75 93.75 0 0 1 406.25 125H906.25A93.75 93.75 0 0 1 1000 218.75V781.25A93.75 93.75 0 0 1 906.25 875H406.25A93.75 93.75 0 0 1 312.5 781.25V656.25A31.25 31.25 0 0 1 375 656.25zM740.875 477.875A31.25 31.25 0 0 1 740.875 522.125L553.375 709.625A31.25 31.25 0 1 1 509.1249999999999 665.375L643.3125 531.25H93.75A31.25 31.25 0 0 1 93.75 468.75H643.3125L509.1249999999999 334.625A31.25 31.25 0 0 1 553.375 290.3749999999999z" />
    <glyph glyph-name="box-arrow-in-up-left"
      unicode="&#xEA80;"
      horiz-adv-x="1000" d="M602.25 156.25A31.25 31.25 0 0 0 571 125H156.25A93.75 93.75 0 0 0 62.5 218.75V843.75A93.75 93.75 0 0 0 156.25 937.5H781.25A93.75 93.75 0 0 0 875 843.75V429A31.25 31.25 0 0 0 812.5 429V843.75A31.25 31.25 0 0 1 781.25 875H156.25A31.25 31.25 0 0 1 125 843.75V218.75A31.25 31.25 0 0 1 156.25 187.5H571A31.25 31.25 0 0 0 602.25 156.25M312.5 656.25A31.25 31.25 0 0 0 343.75 687.5H656.25A31.25 31.25 0 0 0 656.25 625H419.1875L928.375 115.875A31.25 31.25 0 0 0 884.1249999999999 71.6249999999999L375 580.8125V343.75A31.25 31.25 0 0 0 312.5 343.75z" />
    <glyph glyph-name="box-arrow-in-up-right"
      unicode="&#xEA81;"
      horiz-adv-x="1000" d="M397.75 156.25A31.25 31.25 0 0 1 429 125H843.75A93.75 93.75 0 0 1 937.5 218.75V843.75A93.75 93.75 0 0 1 843.75 937.5H218.75A93.75 93.75 0 0 1 125 843.75V429A31.25 31.25 0 1 1 187.5 429V843.75A31.25 31.25 0 0 0 218.75 875H843.75A31.25 31.25 0 0 0 875 843.75V218.75A31.25 31.25 0 0 0 843.75 187.5H429A31.25 31.25 0 0 1 397.75 156.25M687.5 656.25A31.25 31.25 0 0 1 656.25 687.5H343.75A31.25 31.25 0 0 1 343.75 625H580.8125L71.6249999999999 115.875A31.25 31.25 0 0 1 115.875 71.6249999999999L625 580.8125V343.75A31.25 31.25 0 0 1 687.5 343.75z" />
    <glyph glyph-name="box-arrow-in-up"
      unicode="&#xEA82;"
      horiz-adv-x="1000" d="M218.75 375A31.25 31.25 0 0 0 187.5 406.25V906.25A31.25 31.25 0 0 0 218.75 937.5H781.25A31.25 31.25 0 0 0 812.5 906.25V406.25A31.25 31.25 0 0 0 781.25 375H656.25A31.25 31.25 0 0 1 656.25 312.5H781.25A93.75 93.75 0 0 1 875 406.25V906.25A93.75 93.75 0 0 1 781.25 1000H218.75A93.75 93.75 0 0 1 125 906.25V406.25A93.75 93.75 0 0 1 218.75 312.5H343.75A31.25 31.25 0 0 1 343.75 375zM477.875 740.875A31.25 31.25 0 0 0 522.125 740.875L709.625 553.375A31.25 31.25 0 0 0 665.3749999999999 509.125L531.25 643.3125V93.75A31.25 31.25 0 0 0 468.75 93.75V643.3125L334.625 509.125A31.25 31.25 0 1 0 290.375 553.375z" />
    <glyph glyph-name="box-arrow-left"
      unicode="&#xEA83;"
      horiz-adv-x="1000" d="M375 218.75A31.25 31.25 0 0 1 406.25 187.5H906.25A31.25 31.25 0 0 1 937.5 218.75V781.25A31.25 31.25 0 0 1 906.25 812.5H406.25A31.25 31.25 0 0 1 375 781.25V656.25A31.25 31.25 0 0 0 312.5 656.25V781.25A93.75 93.75 0 0 0 406.25 875H906.25A93.75 93.75 0 0 0 1000 781.25V218.75A93.75 93.75 0 0 0 906.25 125H406.25A93.75 93.75 0 0 0 312.5 218.75V343.75A31.25 31.25 0 0 0 375 343.75zM9.125 477.875A31.25 31.25 0 0 0 9.125 522.125L196.625 709.625A31.25 31.25 0 1 0 240.875 665.375L106.6875 531.25H656.25A31.25 31.25 0 0 0 656.25 468.75H106.6875L240.875 334.625A31.25 31.25 0 0 0 196.625 290.3749999999999z" />
    <glyph glyph-name="box-arrow-right"
      unicode="&#xEA84;"
      horiz-adv-x="1000" d="M625 218.75A31.25 31.25 0 0 0 593.75 187.5H93.75A31.25 31.25 0 0 0 62.5 218.75V781.25A31.25 31.25 0 0 0 93.75 812.5H593.75A31.25 31.25 0 0 0 625 781.25V656.25A31.25 31.25 0 0 1 687.5 656.25V781.25A93.75 93.75 0 0 1 593.75 875H93.75A93.75 93.75 0 0 1 0 781.25V218.75A93.75 93.75 0 0 1 93.75 125H593.75A93.75 93.75 0 0 1 687.5 218.75V343.75A31.25 31.25 0 0 1 625 343.75zM990.875 477.875A31.25 31.25 0 0 1 990.875 522.125L803.375 709.625A31.25 31.25 0 0 1 759.1249999999999 665.375L893.3125 531.25H343.75A31.25 31.25 0 0 1 343.75 468.75H893.3125L759.1249999999999 334.625A31.25 31.25 0 0 1 803.375 290.3749999999999z" />
    <glyph glyph-name="box-arrow-up-left"
      unicode="&#xEA85;"
      horiz-adv-x="1000" d="M460.25 781.25A31.25 31.25 0 0 0 491.5 812.5H906.25A93.75 93.75 0 0 0 1000 718.75V93.75A93.75 93.75 0 0 0 906.25 0H281.25A93.75 93.75 0 0 0 187.5 93.75V508.5A31.25 31.25 0 1 0 250 508.5V93.75A31.25 31.25 0 0 1 281.25 62.5H906.25A31.25 31.25 0 0 1 937.5 93.75V718.75A31.25 31.25 0 0 1 906.25 750H491.5A31.25 31.25 0 0 0 460.25 781.25M0 968.75A31.25 31.25 0 0 0 31.25 1000H343.75A31.25 31.25 0 0 0 343.75 937.5H106.6875L615.8750000000001 428.375A31.25 31.25 0 0 0 571.625 384.1249999999999L62.5 893.3125V656.25A31.25 31.25 0 0 0 0 656.25z" />
    <glyph glyph-name="box-arrow-up-right"
      unicode="&#xEA86;"
      horiz-adv-x="1000" d="M539.75 781.25A31.25 31.25 0 0 1 508.4999999999999 812.5H93.75A93.75 93.75 0 0 1 0 718.75V93.75A93.75 93.75 0 0 1 93.75 0H718.75A93.75 93.75 0 0 1 812.5 93.75V508.5A31.25 31.25 0 0 1 750 508.5V93.75A31.25 31.25 0 0 0 718.75 62.5H93.75A31.25 31.25 0 0 0 62.5 93.75V718.75A31.25 31.25 0 0 0 93.75 750H508.4999999999999A31.25 31.25 0 0 1 539.75 781.25M1000 968.75A31.25 31.25 0 0 1 968.75 1000H656.25A31.25 31.25 0 0 1 656.25 937.5H893.3125L384.125 428.375A31.25 31.25 0 1 1 428.375 384.1249999999999L937.5 893.3125V656.25A31.25 31.25 0 0 1 1000 656.25z" />
    <glyph glyph-name="box-arrow-up"
      unicode="&#xEA87;"
      horiz-adv-x="1000" d="M218.75 625A31.25 31.25 0 0 1 187.5 593.75V93.75A31.25 31.25 0 0 1 218.75 62.5H781.25A31.25 31.25 0 0 1 812.5 93.75V593.75A31.25 31.25 0 0 1 781.25 625H656.25A31.25 31.25 0 0 0 656.25 687.5H781.25A93.75 93.75 0 0 0 875 593.75V93.75A93.75 93.75 0 0 0 781.25 0H218.75A93.75 93.75 0 0 0 125 93.75V593.75A93.75 93.75 0 0 0 218.75 687.5H343.75A31.25 31.25 0 0 0 343.75 625zM477.875 990.875A31.25 31.25 0 0 0 522.125 990.875L709.625 803.375A31.25 31.25 0 0 0 665.3749999999999 759.125L531.25 893.3125V343.75A31.25 31.25 0 0 0 468.75 343.75V893.3125L334.625 759.125A31.25 31.25 0 1 0 290.375 803.375z" />
    <glyph glyph-name="box-fill"
      unicode="&#xEA88;"
      horiz-adv-x="1000" d="M970.5 814.1875A46.875 46.875 0 0 0 1000 770.6875V229.3125A46.875 46.875 0 0 0 970.5 185.8125L517.375 4.5625A46.875 46.875 0 0 0 482.5625 4.5625L29.4375 185.8125A46.875 46.875 0 0 0 0 229.3125V770.6875A46.875 46.875 0 0 0 29.4375 814.1875L465.1875 988.5L465.4374999999999 988.5625L482.5624999999999 995.4375A46.875 46.875 0 0 0 517.4375 995.4375L534.5625 988.5625L534.8125 988.5zM884.625 781.25L500 627.375L115.375 781.25L62.5 760.0625V735.0625L468.75 572.5625V77.4375L500 64.9375000000001L531.25 77.4375V572.5L937.5 735V760L884.625 781.1875z" />
    <glyph glyph-name="box-seam-fill"
      unicode="&#xEA89;"
      horiz-adv-x="1000" d="M970.5 814.1875A46.875 46.875 0 0 0 1000 770.6875V229.3125A46.875 46.875 0 0 0 970.5 185.8125L517.375 4.5625A46.875 46.875 0 0 0 482.5625 4.5625L29.4375 185.8125A46.875 46.875 0 0 0 0 229.3125V770.6875A46.875 46.875 0 0 0 29.4375 814.1875L465.1875 988.5L465.8124999999999 988.6875L482.5624999999999 995.4375A46.875 46.875 0 0 0 517.4375 995.4375L534.25 988.6875L534.875 988.5zM650.25 875L265.625 721.1875L115.375 781.25L62.5 760.0625V735.0625L468.75 572.5625V77.4375L500 64.9375000000001L531.25 77.4375V572.5L937.5 735V760L884.625 781.1875L500 627.4375L349.75 687.5L734.375 841.3125z" />
    <glyph glyph-name="box-seam"
      unicode="&#xEA8A;"
      horiz-adv-x="1000" d="M511.625 930.4375A31.25 31.25 0 0 1 488.375 930.4375L115.375 781.25L265.625 721.1875L650.25 875zM734.375 841.3125L349.75 687.5L500 627.4375L884.625 781.25zM937.5 735.0625L531.25 572.5625V77.4375L937.5 239.9375V735zM468.75 77.375V572.625L62.5 735.0625V239.8750000000001zM465.1875 988.5A93.75 93.75 0 0 0 534.8125 988.5L980.375 810.25A31.25 31.25 0 0 0 1000 781.25V239.875A62.5 62.5 0 0 0 960.6875 181.8749999999999L511.625 2.2499999999999A31.25 31.25 0 0 0 488.375 2.2499999999999L39.375 181.875A62.5 62.5 0 0 0 0 239.8750000000001V781.25A31.25 31.25 0 0 0 19.625 810.25z" />
    <glyph glyph-name="box"
      unicode="&#xEA8B;"
      horiz-adv-x="1000" d="M511.625 930.4375A31.25 31.25 0 0 1 488.375 930.4375L115.375 781.25L500 627.4375L884.625 781.25zM937.5 735.0625L531.25 572.5625V77.4375L937.5 239.9375V735zM468.75 77.375V572.625L62.5 735.0625V239.8750000000001zM465.1875 988.5A93.75 93.75 0 0 0 534.8125 988.5L980.375 810.25A31.25 31.25 0 0 0 1000 781.25V239.875A62.5 62.5 0 0 0 960.6875 181.8749999999999L511.625 2.2499999999999A31.25 31.25 0 0 0 488.375 2.2499999999999L39.375 181.875A62.5 62.5 0 0 0 0 239.8750000000001V781.25A31.25 31.25 0 0 0 19.625 810.25z" />
    <glyph glyph-name="box2-fill"
      unicode="&#xEA8C;"
      horiz-adv-x="1000" d="M234.375 1000A62.5 62.5 0 0 1 184.375 975L6.25 737.5A31.25 31.25 0 0 1 0 718.75V62.5A62.5 62.5 0 0 1 62.5 0H937.5A62.5 62.5 0 0 1 1000 62.5V718.75A31.25 31.25 0 0 1 993.75 737.5L815.625 975A62.5 62.5 0 0 1 765.625 1000zM937.5 708.3125V687.5H62.5V708.3125L93.75 750H468.75V937.5H531.25V750H906.25z" />
    <glyph glyph-name="box2-heart-fill"
      unicode="&#xEA8D;"
      horiz-adv-x="1000" d="M234.375 1000A62.5 62.5 0 0 1 184.375 975L6.25 737.5A31.25 31.25 0 0 1 0 718.75V62.5A62.5 62.5 0 0 1 62.5 0H937.5A62.5 62.5 0 0 1 1000 62.5V718.75A31.25 31.25 0 0 1 993.75 737.5L815.625 975A62.5 62.5 0 0 1 765.625 1000zM531.25 750H906.25L937.5 708.3125V687.5H62.5V708.3125L93.75 750H468.75V937.5H531.25zM500 500.4375C604 607.375 864.0625 420.25 500 179.6875C135.9375 420.3125 396 607.375 500 500.4375" />
    <glyph glyph-name="box2-heart"
      unicode="&#xEA8E;"
      horiz-adv-x="1000" d="M500 501.125C604 605.6875 864.0625 422.75 500 187.5C135.9375 422.75 396 605.625 500 501.125M234.375 1000A62.5 62.5 0 0 1 184.375 975L6.25 737.5A31.25 31.25 0 0 1 0 718.75V62.5A62.5 62.5 0 0 1 62.5 0H937.5A62.5 62.5 0 0 1 1000 62.5V718.75A31.25 31.25 0 0 1 993.75 737.5L815.625 975A62.5 62.5 0 0 1 765.625 1000zM234.375 937.5H468.75V750H93.75zM531.25 750V937.5H765.625L906.25 750zM937.5 687.5V62.5H62.5V687.5z" />
    <glyph glyph-name="box2"
      unicode="&#xEA8F;"
      horiz-adv-x="1000" d="M184.375 975A62.5 62.5 0 0 0 234.375 1000H765.625A62.5 62.5 0 0 0 815.625 975L993.75 737.5A31.25 31.25 0 0 0 1000 718.75V62.5A62.5 62.5 0 0 0 937.5 0H62.5A62.5 62.5 0 0 0 0 62.5V718.75A31.25 31.25 0 0 0 6.25 737.5zM468.75 937.5H234.375L93.75 750H468.75zM531.25 937.5V750H906.25L765.625 937.5zM937.5 687.5H62.5V62.5H937.5z" />
    <glyph glyph-name="boxes"
      unicode="&#xEA90;"
      horiz-adv-x="1000" d="M484.5 995.875A31.25 31.25 0 0 0 515.5 995.875L749.875 861.9375A31.25 31.25 0 0 0 765.625 834.8125V585.125L984.2500000000002 460.125A31.25 31.25 0 0 0 1000 433.125V165.25A31.25 31.25 0 0 0 984.25 138.125L749.875 4.1875A31.25 31.25 0 0 0 718.8749999999999 4.1875L499.9999999999999 129.1875L281.125 4.125A31.25 31.25 0 0 0 250.125 4.125L15.7499999999999 138.0625A31.25 31.25 0 0 0 0 165.1875V433.0625A31.25 31.25 0 0 0 15.75 460.1875L234.375 585.125V834.8125A31.25 31.25 0 0 0 250.125 861.9375zM265.625 531L94.25 433.0625L265.625 335.125L437 433.0625zM468.75 379.1875L296.875 281V85.125L468.75 183.3125zM531.25 183.3125L703.125 85.125V281L531.25 379.1875zM563 433.0625L734.375 335.125L905.75 433.0625L734.375 531zM703.125 585.125V781L531.25 682.75V486.875zM468.75 486.875V682.75L296.875 781V585.125zM328.625 834.8125L500 736.875L671.375 834.8125L500 932.75zM937.5 379.1875L765.625 281V85.125L937.5 183.3125zM234.375 85.125V281L62.5 379.1875V183.3125z" />
    <glyph glyph-name="brightness-alt-high-fill"
      unicode="&#xEA91;"
      horiz-adv-x="1000" d="M500 812.5A31.25 31.25 0 0 0 531.25 781.25V656.25A31.25 31.25 0 0 0 468.75 656.25V781.25A31.25 31.25 0 0 0 500 812.5M1000 312.5A31.25 31.25 0 0 0 968.75 281.25H843.75A31.25 31.25 0 0 0 843.75 343.75H968.75A31.25 31.25 0 0 0 1000 312.5M156.25 281.25A31.25 31.25 0 0 1 156.25 343.75H31.25A31.25 31.25 0 0 1 31.25 281.25zM853.5625 666.0625A31.25 31.25 0 0 0 853.5625 621.875L765.1875 533.5A31.25 31.25 0 1 0 721 577.6875L809.375 666.0625A31.25 31.25 0 0 0 853.5625 666.0625M234.8125 533.5A31.25 31.25 0 0 1 279 577.6875L190.625 666.0625A31.25 31.25 0 1 1 146.4375 621.875zM500 562.5A250 250 0 0 1 250 312.5A31.25 31.25 0 0 1 281.25 281.25H718.75A31.25 31.25 0 0 1 750 312.5A250 250 0 0 1 500 562.5" />
    <glyph glyph-name="brightness-alt-high"
      unicode="&#xEA92;"
      horiz-adv-x="1000" d="M500 812.5A31.25 31.25 0 0 0 531.25 781.25V656.25A31.25 31.25 0 0 0 468.75 656.25V781.25A31.25 31.25 0 0 0 500 812.5M1000 312.5A31.25 31.25 0 0 0 968.75 281.25H843.75A31.25 31.25 0 0 0 843.75 343.75H968.75A31.25 31.25 0 0 0 1000 312.5M156.25 281.25A31.25 31.25 0 0 1 156.25 343.75H31.25A31.25 31.25 0 0 1 31.25 281.25zM853.5625 666.0625A31.25 31.25 0 0 0 853.5625 621.875L765.1875 533.5A31.25 31.25 0 1 0 721 577.6875L809.375 666.0625A31.25 31.25 0 0 0 853.5625 666.0625M234.8125 533.5A31.25 31.25 0 0 1 279 577.6875L190.625 666.0625A31.25 31.25 0 1 1 146.4375 621.875zM500 562.5A250 250 0 0 1 250 312.5A31.25 31.25 0 0 1 281.25 281.25H718.75A31.25 31.25 0 0 1 750 312.5A250 250 0 0 1 500 562.5M500 500A187.5 187.5 0 0 0 684.9375 343.75H315A187.5 187.5 0 0 0 500 500" />
    <glyph glyph-name="brightness-alt-low-fill"
      unicode="&#xEA93;"
      horiz-adv-x="1000" d="M531.25 656.25A31.25 31.25 0 1 0 468.75 656.25A31.25 31.25 0 0 0 531.25 656.25M843.75 281.25A31.25 31.25 0 1 0 843.75 343.75A31.25 31.25 0 0 0 843.75 281.25M125 312.5A31.25 31.25 0 1 1 187.5 312.5A31.25 31.25 0 0 1 125 312.5M765.1875 533.5A31.25 31.25 0 1 0 721 577.6875A31.25 31.25 0 0 0 765.1875 533.5M234.8125 577.6875A31.25 31.25 0 1 1 279 533.5A31.25 31.25 0 0 1 234.8125 577.6875M500 562.5A250 250 0 0 1 250 312.5A31.25 31.25 0 0 1 281.25 281.25H718.75A31.25 31.25 0 0 1 750 312.5A250 250 0 0 1 500 562.5" />
    <glyph glyph-name="brightness-alt-low"
      unicode="&#xEA94;"
      horiz-adv-x="1000" d="M531.25 656.25A31.25 31.25 0 1 0 468.75 656.25A31.25 31.25 0 0 0 531.25 656.25M843.75 281.25A31.25 31.25 0 1 0 843.75 343.75A31.25 31.25 0 0 0 843.75 281.25M125 312.5A31.25 31.25 0 1 1 187.5 312.5A31.25 31.25 0 0 1 125 312.5M765.1875 533.5A31.25 31.25 0 1 0 721 577.6875A31.25 31.25 0 0 0 765.1875 533.5M234.8125 577.6875A31.25 31.25 0 1 1 279 533.5A31.25 31.25 0 0 1 234.8125 577.6875M500 562.5A250 250 0 0 1 250 312.5A31.25 31.25 0 0 1 281.25 281.25H718.75A31.25 31.25 0 0 1 750 312.5A250 250 0 0 1 500 562.5M500 500A187.5 187.5 0 0 0 684.9375 343.75H315A187.5 187.5 0 0 0 500 500" />
    <glyph glyph-name="brightness-high-fill"
      unicode="&#xEA95;"
      horiz-adv-x="1000" d="M750 500A250 250 0 1 0 250 500A250 250 0 0 0 750 500M500 1000A31.25 31.25 0 0 0 531.25 968.75V843.75A31.25 31.25 0 0 0 468.75 843.75V968.75A31.25 31.25 0 0 0 500 1000M500 187.5A31.25 31.25 0 0 0 531.25 156.25V31.25A31.25 31.25 0 0 0 468.75 31.25V156.25A31.25 31.25 0 0 0 500 187.5M1000 500A31.25 31.25 0 0 0 968.75 468.75H843.75A31.25 31.25 0 0 0 843.75 531.25H968.75A31.25 31.25 0 0 0 1000 500M187.5 500A31.25 31.25 0 0 0 156.25 468.75H31.25A31.25 31.25 0 0 0 31.25 531.25H156.25A31.25 31.25 0 0 0 187.5 500M853.5625 853.5625A31.25 31.25 0 0 0 853.5625 809.375L765.1875 720.9375A31.25 31.25 0 1 0 721 765.1875L809.375 853.5625A31.25 31.25 0 0 0 853.5625 853.5625M279 279A31.25 31.25 0 0 0 279 234.8125L190.625 146.4375A31.25 31.25 0 0 0 146.4375 190.625L234.8125 279A31.25 31.25 0 0 0 279 279M853.5625 146.4375A31.25 31.25 0 0 0 809.375 146.4375L721 234.8125A31.25 31.25 0 0 0 765.1875 279L853.5625 190.625A31.25 31.25 0 0 0 853.5625 146.4375M279 720.9375A31.25 31.25 0 0 0 234.8125000000001 720.9375L146.4375 809.375A31.25 31.25 0 1 0 190.625 853.5625L279 765.1875A31.25 31.25 0 0 0 279 720.9375" />
    <glyph glyph-name="brightness-high"
      unicode="&#xEA96;"
      horiz-adv-x="1000" d="M500 312.5A187.5 187.5 0 1 0 500 687.5A187.5 187.5 0 0 0 500 312.5M500 250A250 250 0 1 1 500 750A250 250 0 0 1 500 250M500 1000A31.25 31.25 0 0 0 531.25 968.75V843.75A31.25 31.25 0 0 0 468.75 843.75V968.75A31.25 31.25 0 0 0 500 1000M500 187.5A31.25 31.25 0 0 0 531.25 156.25V31.25A31.25 31.25 0 0 0 468.75 31.25V156.25A31.25 31.25 0 0 0 500 187.5M1000 500A31.25 31.25 0 0 0 968.75 468.75H843.75A31.25 31.25 0 0 0 843.75 531.25H968.75A31.25 31.25 0 0 0 1000 500M187.5 500A31.25 31.25 0 0 0 156.25 468.75H31.25A31.25 31.25 0 0 0 31.25 531.25H156.25A31.25 31.25 0 0 0 187.5 500M853.5625 853.5625A31.25 31.25 0 0 0 853.5625 809.375L765.1875 720.9375A31.25 31.25 0 1 0 721 765.1875L809.375 853.5625A31.25 31.25 0 0 0 853.5625 853.5625M279 279A31.25 31.25 0 0 0 279 234.8125L190.625 146.4375A31.25 31.25 0 0 0 146.4375 190.625L234.8125 279A31.25 31.25 0 0 0 279 279M853.5625 146.4375A31.25 31.25 0 0 0 809.375 146.4375L721 234.8125A31.25 31.25 0 0 0 765.1875 279L853.5625 190.625A31.25 31.25 0 0 0 853.5625 146.4375M279 720.9375A31.25 31.25 0 0 0 234.8125000000001 720.9375L146.4375 809.375A31.25 31.25 0 1 0 190.625 853.5625L279 765.1875A31.25 31.25 0 0 0 279 720.9375" />
    <glyph glyph-name="brightness-low-fill"
      unicode="&#xEA97;"
      horiz-adv-x="1000" d="M750 500A250 250 0 1 0 250 500A250 250 0 0 0 750 500M531.25 843.75A31.25 31.25 0 1 0 468.75 843.75A31.25 31.25 0 0 0 531.25 843.75M531.25 156.25A31.25 31.25 0 1 0 468.75 156.25A31.25 31.25 0 0 0 531.25 156.25M843.75 468.75A31.25 31.25 0 1 0 843.75 531.25A31.25 31.25 0 0 0 843.75 468.75M156.25 468.75A31.25 31.25 0 1 0 156.25 531.25A31.25 31.25 0 0 0 156.25 468.75M765.1875 721A31.25 31.25 0 1 0 721 765.1875A31.25 31.25 0 0 0 765.1875 721M279 234.8125A31.25 31.25 0 1 0 234.8125000000001 279A31.25 31.25 0 0 0 279 234.8125M721.0000000000001 234.8125A31.25 31.25 0 1 0 765.1875000000001 279A31.25 31.25 0 0 0 721.0000000000001 234.8125M234.8125 721A31.25 31.25 0 1 0 279 765.1875A31.25 31.25 0 0 0 234.8125000000001 721" />
    <glyph glyph-name="brightness-low"
      unicode="&#xEA98;"
      horiz-adv-x="1000" d="M500 312.5A187.5 187.5 0 1 0 500 687.5A187.5 187.5 0 0 0 500 312.5M500 250A250 250 0 1 1 500 750A250 250 0 0 1 500 250M531.25 843.75A31.25 31.25 0 1 0 468.75 843.75A31.25 31.25 0 0 0 531.25 843.75M531.25 156.25A31.25 31.25 0 1 0 468.75 156.25A31.25 31.25 0 0 0 531.25 156.25M843.75 468.75A31.25 31.25 0 1 0 843.75 531.25A31.25 31.25 0 0 0 843.75 468.75M156.25 468.75A31.25 31.25 0 1 0 156.25 531.25A31.25 31.25 0 0 0 156.25 468.75M765.1875 721A31.25 31.25 0 1 0 721 765.1875A31.25 31.25 0 0 0 765.1875 721M279 234.8125A31.25 31.25 0 1 0 234.8125000000001 279A31.25 31.25 0 0 0 279 234.8125M721.0000000000001 234.8125A31.25 31.25 0 1 0 765.1875000000001 279A31.25 31.25 0 0 0 721.0000000000001 234.8125M234.8125 721A31.25 31.25 0 1 0 279 765.1875A31.25 31.25 0 0 0 234.8125000000001 721" />
    <glyph glyph-name="calendar-check-fill"
      unicode="&#xEA99;"
      horiz-adv-x="1000" d="M250 968.75A31.25 31.25 0 0 1 187.5 968.75V937.5H125A125 125 0 0 1 0 812.5V750H1000V812.5A125 125 0 0 1 875 937.5H812.5V968.75A31.25 31.25 0 0 1 750 968.75V937.5H250zM1000 125V687.5H0V125A125 125 0 0 1 125 0H875A125 125 0 0 1 1000 125M678.375 446.625L490.8749999999999 259.125A31.25 31.25 0 0 0 446.625 259.125L352.875 352.875A31.25 31.25 0 0 0 397.125 397.1250000000001L468.75 325.4375L634.125 490.8750000000001A31.25 31.25 0 0 0 678.3750000000001 446.625" />
    <glyph glyph-name="calendar-check"
      unicode="&#xEA9A;"
      horiz-adv-x="1000" d="M678.375 553.375A31.25 31.25 0 0 0 678.375 509.125L490.8749999999999 321.625A31.25 31.25 0 0 0 446.625 321.625L352.875 415.375A31.25 31.25 0 1 0 397.125 459.6250000000001L468.75 387.9375L634.125 553.375A31.25 31.25 0 0 0 678.3750000000001 553.375M218.75 1000A31.25 31.25 0 0 0 250 968.75V937.5H750V968.75A31.25 31.25 0 0 0 812.5 968.75V937.5H875A125 125 0 0 0 1000 812.5V125A125 125 0 0 0 875 0H125A125 125 0 0 0 0 125V812.5A125 125 0 0 0 125 937.5H187.5V968.75A31.25 31.25 0 0 0 218.75 1000M62.5 750V125A62.5 62.5 0 0 1 125 62.5H875A62.5 62.5 0 0 1 937.5 125V750z" />
    <glyph glyph-name="calendar-date-fill"
      unicode="&#xEA9B;"
      horiz-adv-x="1000" d="M250 968.75A31.25 31.25 0 0 1 187.5 968.75V937.5H125A125 125 0 0 1 0 812.5V750H1000V812.5A125 125 0 0 1 875 937.5H812.5V968.75A31.25 31.25 0 0 1 750 968.75V937.5H250zM587.6250000000001 359.625C626.6875000000001 359.625 661.625 389.875 661.625 433.375C661.625 485.375 628.6875000000001 510.25 589.125 510.25C552.5 510.25 516.125 486.0625 516.125 434.625C516.125 383.5625 550.0625 359.6250000000001 587.6250000000001 359.6250000000001M1000 125V687.5H0V125A125 125 0 0 1 125 0H875A125 125 0 0 1 1000 125M583.5 200.625C514.125 200.625 480.0000000000001 248.5625 477.0625 288.5625H519.75C522.4375 265.4375000000001 543.9375000000001 237.3125 585.4375 237.3125C638.1875 237.3125 666.7500000000001 290.3125000000001 667 372.5625H665.3125000000001C655.75 346.6875 625.5 323.1875 578.875 323.1875C525.625 323.1875 474.125 361.3124999999999 474.125 433.8124999999999C474.125 504.8749999999999 528.5625 546.875 586.4375 546.875C659.6875000000001 546.875 708.5 500.9999999999999 708.5 380.1249999999999C708.5 267.3125 662.1250000000001 200.6874999999999 583.5 200.6874999999999zM402.875 540.3125V207.0625H360.625V495.0624999999999H359.875C341.75 485.3124999999999 304.6875 462.5625 281.25 446.5V490A812.5 812.5 0 0 0 363.3125 540.3125H402.8125z" />
    <glyph glyph-name="calendar-date"
      unicode="&#xEA9C;"
      horiz-adv-x="1000" d="M402.8125 269.5V602.875H363.25A812.5 812.5 0 0 1 281.25 552.5V509.0625C304.6875 525.125 341.8125 547.8125 359.875 557.625H360.625V269.5zM477.0625 351.0625C480 311.0624999999999 514.1875 263.1874999999999 583.5 263.1874999999999C662.1250000000001 263.1874999999999 708.5 329.8125 708.5 442.6249999999999C708.5 563.5 659.6875 609.375 586.4375 609.375C528.5625 609.375 474.1250000000001 567.375 474.1250000000001 496.3124999999999C474.1250000000001 423.8124999999999 525.6250000000001 385.6875 578.875 385.6875C625.5 385.6875 655.75 409.1874999999999 665.3125 435.0624999999999H666.9999999999999C666.75 352.8124999999999 638.1874999999999 299.8124999999999 585.4375 299.8124999999999C543.9375 299.8124999999999 522.4374999999999 327.9374999999999 519.8124999999999 351.0625zM661.625 495.8749999999999C661.625 452.375 626.6875000000001 422.125 587.6250000000001 422.125C550.0625000000001 422.125 516.125 446.0625 516.125 497.1249999999999C516.125 548.5625 552.5000000000001 572.75 589.125 572.75C628.6875000000001 572.75 661.625 547.875 661.625 495.8749999999999M218.75 1000A31.25 31.25 0 0 0 250 968.75V937.5H750V968.75A31.25 31.25 0 0 0 812.5 968.75V937.5H875A125 125 0 0 0 1000 812.5V125A125 125 0 0 0 875 0H125A125 125 0 0 0 0 125V812.5A125 125 0 0 0 125 937.5H187.5V968.75A31.25 31.25 0 0 0 218.75 1000M62.5 750V125A62.5 62.5 0 0 1 125 62.5H875A62.5 62.5 0 0 1 937.5 125V750z" />
    <glyph glyph-name="calendar-day-fill"
      unicode="&#xEA9D;"
      horiz-adv-x="1000" d="M250 968.75A31.25 31.25 0 0 1 187.5 968.75V937.5H125A125 125 0 0 1 0 812.5V750H1000V812.5A125 125 0 0 1 875 937.5H812.5V968.75A31.25 31.25 0 0 1 750 968.75V937.5H250zM1000 125A125 125 0 0 0 875 0H125A125 125 0 0 0 0 125V687.5H1000zM700.9375 509.0625A26.75 26.75 0 1 1 700.9375 562.5A26.625 26.625 0 0 1 674.0625 535.625C674.0625 520.75 686.0625 509.0625000000001 700.9375 509.0625000000001M721.9375 473.875H679.9375V217.3125H721.9375zM292.75 217.3125V361.0625000000001H434.0625V399.1875H292.75V512.4375H446.75V550.5625H250V217.3125zM498.75 217.3125H541V376.25C541 410.875 555.1875 439.1875 600.5625 439.1875C608.375 439.1875 616.6875 438.9375 621.125 438.2499999999999V476.5624999999999A125 125 0 0 1 605.2500000000001 477.8124999999999C568.875 477.8124999999999 549.5625000000001 457.8124999999999 542 442.3749999999999H540.7500000000001V473.8749999999998H498.75z" />
    <glyph glyph-name="calendar-day"
      unicode="&#xEA9E;"
      horiz-adv-x="1000" d="M292.75 279.8125V423.5625000000001H434.0625V461.6875H292.75V574.9375H446.75V613.0625H250V279.8125zM498.75 279.8125H541V438.75C541 473.375 555.1875 501.6874999999999 600.5625 501.6874999999999C608.375 501.6874999999999 616.6875 501.4375 621.125 500.75V539.0625A125 125 0 0 1 605.2500000000001 540.3125C568.875 540.3125 549.5625000000001 520.3125 542 504.8749999999999H540.7500000000001V536.375H498.75zM674.0625 598.125C674.0625 583.25 686.0625 571.5625 700.9375 571.5625A26.75 26.75 0 1 1 700.9375 625A26.625 26.625 0 0 1 674.0625 598.125M679.9375 279.8125H721.9375V536.375H679.9375zM218.75 1000A31.25 31.25 0 0 0 250 968.75V937.5H750V968.75A31.25 31.25 0 0 0 812.5 968.75V937.5H875A125 125 0 0 0 1000 812.5V125A125 125 0 0 0 875 0H125A125 125 0 0 0 0 125V812.5A125 125 0 0 0 125 937.5H187.5V968.75A31.25 31.25 0 0 0 218.75 1000M62.5 750V125A62.5 62.5 0 0 1 125 62.5H875A62.5 62.5 0 0 1 937.5 125V750z" />
    <glyph glyph-name="calendar-event-fill"
      unicode="&#xEA9F;"
      horiz-adv-x="1000" d="M250 968.75A31.25 31.25 0 0 1 187.5 968.75V937.5H125A125 125 0 0 1 0 812.5V750H1000V812.5A125 125 0 0 1 875 937.5H812.5V968.75A31.25 31.25 0 0 1 750 968.75V937.5H250zM1000 125V687.5H0V125A125 125 0 0 1 125 0H875A125 125 0 0 1 1000 125M781.25 562.5H843.75A31.25 31.25 0 0 0 875 531.25V468.75A31.25 31.25 0 0 0 843.75 437.5H781.25A31.25 31.25 0 0 0 750 468.75V531.25A31.25 31.25 0 0 0 781.25 562.5" />
    <glyph glyph-name="calendar-event"
      unicode="&#xEAA0;"
      horiz-adv-x="1000" d="M687.5 593.75A31.25 31.25 0 0 0 718.75 625H781.25A31.25 31.25 0 0 0 812.5 593.75V531.25A31.25 31.25 0 0 0 781.25 500H718.75A31.25 31.25 0 0 0 687.5 531.25zM218.75 1000A31.25 31.25 0 0 0 250 968.75V937.5H750V968.75A31.25 31.25 0 0 0 812.5 968.75V937.5H875A125 125 0 0 0 1000 812.5V125A125 125 0 0 0 875 0H125A125 125 0 0 0 0 125V812.5A125 125 0 0 0 125 937.5H187.5V968.75A31.25 31.25 0 0 0 218.75 1000M62.5 750V125A62.5 62.5 0 0 1 125 62.5H875A62.5 62.5 0 0 1 937.5 125V750z" />
    <glyph glyph-name="calendar-fill"
      unicode="&#xEAA1;"
      horiz-adv-x="1000" d="M218.75 1000A31.25 31.25 0 0 0 250 968.75V937.5H750V968.75A31.25 31.25 0 0 0 812.5 968.75V937.5H875A125 125 0 0 0 1000 812.5V125A125 125 0 0 0 875 0H125A125 125 0 0 0 0 125V687.5H1000V750H0V812.5A125 125 0 0 0 125 937.5H187.5V968.75A31.25 31.25 0 0 0 218.75 1000" />
    <glyph glyph-name="calendar-heart-fill"
      unicode="&#xEAA2;"
      horiz-adv-x="1000" d="M250 968.75A31.25 31.25 0 0 1 187.5 968.75V937.5H125A125 125 0 0 1 0 812.5V750H1000V812.5A125 125 0 0 1 875 937.5H812.5V968.75A31.25 31.25 0 0 1 750 968.75V937.5H250zM1000 125V687.5H0V125A125 125 0 0 1 125 0H875A125 125 0 0 1 1000 125M500 500.4375C604 607.375 864.0625 420.25 500 179.6875C135.9375 420.3125 396 607.375 500 500.4375" />
    <glyph glyph-name="calendar-heart"
      unicode="&#xEAA3;"
      horiz-adv-x="1000" d="M250 968.75A31.25 31.25 0 0 1 187.5 968.75V937.5H125A125 125 0 0 1 0 812.5V125A125 125 0 0 1 125 0H875A125 125 0 0 1 1000 125V812.5A125 125 0 0 1 875 937.5H812.5V968.75A31.25 31.25 0 0 1 750 968.75V937.5H250zM62.5 125V750H937.5V125A62.5 62.5 0 0 0 875 62.5H125A62.5 62.5 0 0 0 62.5 125M500 531.6875C604 638.625 864.0625 451.5 500 210.9375C135.9375 451.5625 396 638.625 500 531.6875" />
    </font>
</defs>
</svg>
